<svg width="16" height="17" viewBox="0 0 16 17" fill="none" xmlns="http://www.w3.org/2000/svg">
<g clip-path="url(#clip0)">
<path d="M7.03607 4.66L4.78074 2.05667C4.52074 1.75667 4.04407 1.758 3.74207 2.06067L1.88741 3.91867C1.33541 4.47134 1.17741 5.292 1.49674 5.95C3.40449 9.89998 6.5901 13.0901 10.5374 15.0033C11.1947 15.3227 12.0147 15.1647 12.5667 14.612L14.4387 12.7367C14.7421 12.4333 14.7427 11.954 14.4401 11.694L11.8267 9.45067C11.5534 9.216 11.1287 9.24667 10.8547 9.52134L9.94541 10.432C9.89885 10.4808 9.83757 10.513 9.77097 10.5236C9.70438 10.5342 9.63614 10.5226 9.57674 10.4907C8.09037 9.63473 6.8574 8.40016 6.00341 6.91267C5.97142 6.85317 5.95984 6.78482 5.97044 6.71811C5.98104 6.65139 6.01323 6.59 6.06207 6.54334L6.96874 5.636C7.24341 5.36 7.27341 4.93334 7.03607 4.65934V4.66Z" stroke="white" stroke-width="2" stroke-linecap="round" stroke-linejoin="round"/>
</g>
<defs>
<clipPath id="clip0">
<rect width="16" height="16" fill="white" transform="translate(0 0.5)"/>
</clipPath>
</defs>
</svg>
