<svg width="16" height="17" viewBox="0 0 16 17" fill="none" xmlns="http://www.w3.org/2000/svg">
<g clip-path="url(#clip0)">
<path fill-rule="evenodd" clip-rule="evenodd" d="M11.61 10.088C11.4113 9.98865 10.4373 9.50998 10.256 9.44332C10.0747 9.37732 9.94267 9.34465 9.81 9.54332C9.678 9.74065 9.29867 10.1873 9.18333 10.3193C9.06733 10.452 8.952 10.468 8.754 10.3693C8.556 10.2693 7.91733 10.0606 7.16067 9.38598C6.572 8.86065 6.174 8.21198 6.05867 8.01332C5.94333 7.81532 6.046 7.70798 6.14533 7.60932C6.23467 7.52065 6.34333 7.37798 6.44267 7.26265C6.542 7.14665 6.57467 7.06398 6.64067 6.93132C6.70733 6.79932 6.674 6.68398 6.624 6.58465C6.57467 6.48532 6.17867 5.50998 6.01333 5.11332C5.85267 4.72732 5.68933 4.77998 5.568 4.77332C5.452 4.76798 5.32 4.76665 5.188 4.76665C5.056 4.76665 4.84133 4.81598 4.66 5.01465C4.478 5.21265 3.96667 5.69198 3.96667 6.66732C3.96667 7.64198 4.676 8.58398 4.77533 8.71665C4.87467 8.84865 6.172 10.85 8.15933 11.708C8.63267 11.912 9.00133 12.034 9.28867 12.1246C9.76333 12.276 10.1953 12.2546 10.5367 12.2033C10.9167 12.1466 11.7087 11.724 11.874 11.2613C12.0387 10.7986 12.0387 10.402 11.9893 10.3193C11.94 10.2366 11.808 10.1873 11.6093 10.088H11.61ZM7.99533 15.0233H7.99267C6.81229 15.0235 5.65358 14.7062 4.638 14.1046L4.398 13.962L1.90333 14.6166L2.56933 12.1846L2.41267 11.9353C1.75276 10.8849 1.40353 9.66917 1.40533 8.42865C1.40667 4.79532 4.36267 1.83932 7.998 1.83932C9.758 1.83932 11.4127 2.52598 12.6567 3.77132C13.2703 4.38237 13.7566 5.10903 14.0875 5.90925C14.4185 6.70947 14.5874 7.56737 14.5847 8.43332C14.5833 12.0666 11.6273 15.0233 7.99533 15.0233ZM13.6033 2.82531C12.8688 2.08593 11.9948 1.49967 11.0321 1.10052C10.0693 0.701357 9.03689 0.497237 7.99467 0.499982C3.62533 0.499982 0.068 4.05665 0.0666667 8.42798C0.066 9.82532 0.430667 11.1893 1.12467 12.3913L0 16.5L4.20267 15.3973C5.36525 16.0307 6.66806 16.3626 7.992 16.3626H7.99533C12.3647 16.3626 15.922 12.806 15.9233 8.43398C15.9266 7.39217 15.7232 6.36005 15.325 5.39734C14.9267 4.43463 14.3416 3.56043 13.6033 2.82531Z" fill="#9E9E9E"/>
</g>
<defs>
<clipPath id="clip0">
<rect width="16" height="16" fill="white" transform="translate(0 0.5)"/>
</clipPath>
</defs>
</svg>
