<svg width="8" height="8" viewBox="0 0 8 8" fill="none" xmlns="http://www.w3.org/2000/svg">
<path fill-rule="evenodd" clip-rule="evenodd" d="M6.99983 1.25C6.99983 1.1837 6.97349 1.12011 6.9266 1.07322C6.87972 1.02634 6.81613 1 6.74983 1H3.74983C3.68352 1 3.61994 1.02634 3.57305 1.07322C3.52617 1.12011 3.49983 1.1837 3.49983 1.25C3.49983 1.3163 3.52617 1.37989 3.57305 1.42678C3.61994 1.47366 3.68352 1.5 3.74983 1.5H6.14633L1.07283 6.573C1.04958 6.59624 1.03115 6.62384 1.01857 6.65421C1.00599 6.68458 0.999512 6.71713 0.999512 6.75C0.999512 6.78287 1.00599 6.81542 1.01857 6.84579C1.03115 6.87616 1.04958 6.90376 1.07283 6.927C1.09607 6.95024 1.12367 6.96868 1.15404 6.98126C1.18441 6.99384 1.21696 7.00032 1.24983 7.00032C1.2827 7.00032 1.31525 6.99384 1.34562 6.98126C1.37599 6.96868 1.40358 6.95024 1.42683 6.927L6.49983 1.8535V4.25C6.49983 4.3163 6.52617 4.37989 6.57305 4.42678C6.61993 4.47366 6.68352 4.5 6.74983 4.5C6.81613 4.5 6.87972 4.47366 6.9266 4.42678C6.97349 4.37989 6.99983 4.3163 6.99983 4.25V1.25Z" fill="#9E9E9E"/>
</svg>
