<svg width="298" height="98" viewBox="0 0 298 98" fill="none" xmlns="http://www.w3.org/2000/svg">
<g filter="url(#filter0_d)">
<path d="M19 21C19 18.7909 20.7909 17 23 17H275C277.209 17 279 18.7909 279 21V73C279 75.2091 277.209 77 275 77H23C20.7909 77 19 75.2091 19 73V21Z" fill="white"/>
<path d="M78.6076 44.649C78.763 44.4936 79.006 44.4795 79.1773 44.6066L79.2264 44.649L83.0003 48.4227L86.7743 44.649C86.9296 44.4936 87.1727 44.4795 87.344 44.6066L87.393 44.649C87.5483 44.8043 87.5625 45.0473 87.4354 45.2186L87.393 45.2677L83.3097 49.351C83.1544 49.5063 82.9113 49.5205 82.74 49.3934L82.691 49.351L78.6076 45.2677C78.4368 45.0968 78.4368 44.8198 78.6076 44.649Z" fill="black"/>
<path d="M47.108 45.916V43.42H53.384V46.348H47.108V45.916ZM54.296 47.224V42.544H46.184V45.904C46.184 47.872 46.028 50.488 44.444 52.336C44.66 52.444 45.032 52.792 45.188 52.972C46.532 51.388 46.952 49.132 47.072 47.224H50.18C50.924 50.008 52.352 52 54.824 52.9C54.956 52.648 55.22 52.276 55.448 52.096C53.144 51.376 51.752 49.6 51.08 47.224H54.296ZM58.028 47.02C58.916 47.944 59.84 49.228 60.224 50.068L61.016 49.564C60.632 48.7 59.672 47.464 58.784 46.576L58.028 47.02ZM67.34 44.5H64.532V41.968H63.596V44.5H56.66V45.376H63.596V51.592C63.596 51.868 63.5 51.952 63.212 51.964C62.888 51.976 61.856 51.976 60.752 51.94C60.908 52.216 61.088 52.66 61.148 52.936C62.444 52.936 63.344 52.912 63.836 52.756C64.328 52.612 64.532 52.312 64.532 51.58V45.376H67.34V44.5Z" fill="black"/>
<path d="M164.608 44.649C164.763 44.4936 165.006 44.4795 165.177 44.6066L165.226 44.649L169 48.4227L172.774 44.649C172.93 44.4936 173.173 44.4795 173.344 44.6066L173.393 44.649C173.548 44.8043 173.562 45.0473 173.435 45.2186L173.393 45.2677L169.31 49.351C169.154 49.5063 168.911 49.5205 168.74 49.3934L168.691 49.351L164.608 45.2677C164.437 45.0968 164.437 44.8198 164.608 44.649Z" fill="black"/>
<path d="M108.84 44.14C108.456 43.612 107.64 42.796 107.004 42.208L106.392 42.772C107.04 43.384 107.832 44.224 108.204 44.776L108.84 44.14ZM108.528 50.764V45.712H105.636V46.564H107.664V50.836C107.664 51.364 107.256 51.724 107.028 51.868C107.184 52.06 107.4 52.408 107.484 52.624C107.676 52.384 108.036 52.144 110.532 50.404C110.436 50.224 110.328 49.852 110.268 49.612L108.528 50.764ZM116.472 42.976H109.764V43.852H113.436V51.604C113.436 51.832 113.34 51.904 113.112 51.916C112.86 51.928 111.984 51.94 111.108 51.904C111.264 52.144 111.42 52.588 111.468 52.852C112.596 52.852 113.34 52.828 113.772 52.672C114.204 52.528 114.348 52.216 114.348 51.616V43.852H116.472V42.976ZM119.688 48.052V46.768H122.52V48.052H119.688ZM119.688 44.788H122.52V46.048H119.688V44.788ZM126.396 46.048H123.42V44.788H126.396V46.048ZM126.396 48.052H123.42V46.768H126.396V48.052ZM128.328 49.948H123.42V48.808H127.296V44.032H125.292C125.664 43.528 126.096 42.904 126.444 42.34L125.496 42.016C125.208 42.616 124.716 43.456 124.296 44.032H121.404L121.896 43.78C121.656 43.288 121.104 42.556 120.6 42.016L119.856 42.376C120.288 42.868 120.756 43.552 121.02 44.032H118.812V48.808H122.52V49.948H117.684V50.776H122.52V52.912H123.42V50.776H128.328V49.948ZM134.256 42.196C134.064 42.664 133.656 43.36 133.368 43.78L133.968 44.068C134.28 43.672 134.688 43.072 135.036 42.52L134.256 42.196ZM131.484 43.78C131.364 43.36 131.04 42.724 130.704 42.244L130.032 42.52C130.356 43.012 130.668 43.672 130.776 44.092L131.484 43.78ZM136.74 44.992H138.828C138.612 46.48 138.288 47.752 137.772 48.82C137.292 47.704 136.956 46.408 136.728 45.028L136.74 44.992ZM133.464 49.06C133.308 49.708 133.068 50.236 132.708 50.668C132.24 50.44 131.76 50.224 131.28 50.032C131.436 49.72 131.616 49.396 131.784 49.06H133.464ZM140.472 44.992V44.152H136.992C137.16 43.492 137.316 42.796 137.436 42.088L136.524 41.956C136.2 44.068 135.576 46.072 134.568 47.332C134.772 47.476 135.156 47.776 135.288 47.944C135.612 47.512 135.912 47.008 136.164 46.444C136.44 47.668 136.788 48.784 137.244 49.756C136.656 50.656 135.864 51.376 134.844 51.94C134.472 51.664 133.992 51.352 133.464 51.064C133.872 50.524 134.148 49.864 134.316 49.06H135.36V48.316H132.156C132.3 48.028 132.432 47.74 132.564 47.476L132.36 47.428H132.876V45.64C133.452 46.072 134.208 46.648 134.52 46.936L135.012 46.3C134.688 46.06 133.392 45.244 132.876 44.944V44.884H135.312V44.152H132.876V41.956H132.048V44.152H129.588V44.884H131.808C131.22 45.664 130.308 46.408 129.456 46.792C129.624 46.948 129.84 47.26 129.948 47.464C130.68 47.068 131.448 46.408 132.048 45.7V47.356L131.736 47.284C131.592 47.608 131.424 47.956 131.244 48.316H129.516V49.06H130.872C130.548 49.684 130.224 50.296 129.96 50.752L130.728 51.028L130.92 50.692C131.316 50.86 131.712 51.052 132.096 51.244C131.484 51.688 130.644 51.988 129.54 52.18C129.708 52.348 129.888 52.672 129.948 52.912C131.232 52.636 132.18 52.24 132.876 51.664C133.428 51.988 133.908 52.312 134.28 52.612L134.556 52.324C134.712 52.528 134.868 52.792 134.94 52.948C136.116 52.348 137.016 51.58 137.724 50.644C138.312 51.604 139.044 52.372 139.968 52.912C140.088 52.672 140.376 52.324 140.58 52.156C139.62 51.652 138.864 50.836 138.264 49.804C138.996 48.52 139.452 46.936 139.752 44.992H140.472ZM149.952 43.528H144.012V42.88H149.952V43.528ZM149.952 44.704H144.012V44.044H149.952V44.704ZM150.828 42.34H143.16V45.244H150.828V42.34ZM152.352 45.736H141.672V46.42H152.352V45.736ZM143.772 49.396V48.712H146.556V49.396H143.772ZM143.772 47.512H146.556V48.184H143.772V47.512ZM150.312 48.184H147.408V47.512H150.312V48.184ZM150.312 49.396H147.408V48.712H150.312V49.396ZM147.408 51.928V51.232H151.44V50.608H147.408V49.948H151.188V46.96H142.944V49.948H146.556V50.608H142.596V51.232H146.556V51.928H141.6V52.624H152.412V51.928H147.408Z" fill="black"/>
<rect x="224" y="22" width="50" height="50" rx="4" fill="#F5FAF5"/>
<path d="M243 47L247.5 51.5L255 42.5" stroke="#25AB19" stroke-width="2" stroke-linecap="round" stroke-linejoin="round"/>
<path d="M23 17.25H275V16.75H23V17.25ZM278.75 21V73H279.25V21H278.75ZM275 76.75H23V77.25H275V76.75ZM19.25 73V21H18.75V73H19.25ZM23 76.75C20.9289 76.75 19.25 75.0711 19.25 73H18.75C18.75 75.3472 20.6528 77.25 23 77.25V76.75ZM278.75 73C278.75 75.0711 277.071 76.75 275 76.75V77.25C277.347 77.25 279.25 75.3472 279.25 73H278.75ZM275 17.25C277.071 17.25 278.75 18.9289 278.75 21H279.25C279.25 18.6528 277.347 16.75 275 16.75V17.25ZM23 16.75C20.6528 16.75 18.75 18.6528 18.75 21H19.25C19.25 18.9289 20.9289 17.25 23 17.25V16.75Z" fill="#F9F9F9"/>
</g>
<defs>
<filter id="filter0_d" x="0.75" y="0.75" width="296.5" height="96.5" filterUnits="userSpaceOnUse" color-interpolation-filters="sRGB">
<feFlood flood-opacity="0" result="BackgroundImageFix"/>
<feColorMatrix in="SourceAlpha" type="matrix" values="0 0 0 0 0 0 0 0 0 0 0 0 0 0 0 0 0 0 127 0"/>
<feOffset dy="2"/>
<feGaussianBlur stdDeviation="9"/>
<feColorMatrix type="matrix" values="0 0 0 0 0 0 0 0 0 0 0 0 0 0 0 0 0 0 0.08 0"/>
<feBlend mode="normal" in2="BackgroundImageFix" result="effect1_dropShadow"/>
<feBlend mode="normal" in="SourceGraphic" in2="effect1_dropShadow" result="shape"/>
</filter>
</defs>
</svg>
