<svg width="302" height="102" viewBox="0 0 302 102" fill="none" xmlns="http://www.w3.org/2000/svg">
<g filter="url(#filter0_d)">
<rect x="17" y="17" width="260" height="60" rx="4" fill="#2C0146"/>
<path d="M76.6074 44.649C76.7627 44.4936 77.0058 44.4795 77.177 44.6066L77.2261 44.649L81.0001 48.4227L84.7741 44.649C84.9294 44.4936 85.1724 44.4795 85.3437 44.6066L85.3928 44.649C85.5481 44.8043 85.5622 45.0473 85.4351 45.2186L85.3928 45.2677L81.3094 49.351C81.1541 49.5063 80.9111 49.5204 80.7398 49.3934L80.6907 49.351L76.6074 45.2677C76.4365 45.0968 76.4365 44.8198 76.6074 44.649Z" fill="#B0A1BA"/>
<path d="M45.108 45.916V43.42H51.384V46.348H45.108V45.916ZM52.296 47.224V42.544H44.184V45.904C44.184 47.872 44.028 50.488 42.444 52.336C42.66 52.444 43.032 52.792 43.188 52.972C44.532 51.388 44.952 49.132 45.072 47.224H48.18C48.924 50.008 50.352 52 52.824 52.9C52.956 52.648 53.22 52.276 53.448 52.096C51.144 51.376 49.752 49.6 49.08 47.224H52.296ZM56.028 47.02C56.916 47.944 57.84 49.228 58.224 50.068L59.016 49.564C58.632 48.7 57.672 47.464 56.784 46.576L56.028 47.02ZM65.34 44.5H62.532V41.968H61.596V44.5H54.66V45.376H61.596V51.592C61.596 51.868 61.5 51.952 61.212 51.964C60.888 51.976 59.856 51.976 58.752 51.94C58.908 52.216 59.088 52.66 59.148 52.936C60.444 52.936 61.344 52.912 61.836 52.756C62.328 52.612 62.532 52.312 62.532 51.58V45.376H65.34V44.5Z" fill="white"/>
<path d="M162.607 44.649C162.763 44.4936 163.006 44.4795 163.177 44.6066L163.226 44.649L167 48.4227L170.774 44.649C170.929 44.4936 171.172 44.4795 171.344 44.6066L171.393 44.649C171.548 44.8043 171.562 45.0473 171.435 45.2186L171.393 45.2677L167.309 49.351C167.154 49.5063 166.911 49.5204 166.74 49.3934L166.691 49.351L162.607 45.2677C162.437 45.0968 162.437 44.8198 162.607 44.649Z" fill="#B0A1BA"/>
<path d="M106.84 44.14C106.456 43.612 105.64 42.796 105.004 42.208L104.392 42.772C105.04 43.384 105.832 44.224 106.204 44.776L106.84 44.14ZM106.528 50.764V45.712H103.636V46.564H105.664V50.836C105.664 51.364 105.256 51.724 105.028 51.868C105.184 52.06 105.4 52.408 105.484 52.624C105.676 52.384 106.036 52.144 108.532 50.404C108.436 50.224 108.328 49.852 108.268 49.612L106.528 50.764ZM114.472 42.976H107.764V43.852H111.436V51.604C111.436 51.832 111.34 51.904 111.112 51.916C110.86 51.928 109.984 51.94 109.108 51.904C109.264 52.144 109.42 52.588 109.468 52.852C110.596 52.852 111.34 52.828 111.772 52.672C112.204 52.528 112.348 52.216 112.348 51.616V43.852H114.472V42.976ZM117.688 48.052V46.768H120.52V48.052H117.688ZM117.688 44.788H120.52V46.048H117.688V44.788ZM124.396 46.048H121.42V44.788H124.396V46.048ZM124.396 48.052H121.42V46.768H124.396V48.052ZM126.328 49.948H121.42V48.808H125.296V44.032H123.292C123.664 43.528 124.096 42.904 124.444 42.34L123.496 42.016C123.208 42.616 122.716 43.456 122.296 44.032H119.404L119.896 43.78C119.656 43.288 119.104 42.556 118.6 42.016L117.856 42.376C118.288 42.868 118.756 43.552 119.02 44.032H116.812V48.808H120.52V49.948H115.684V50.776H120.52V52.912H121.42V50.776H126.328V49.948ZM132.256 42.196C132.064 42.664 131.656 43.36 131.368 43.78L131.968 44.068C132.28 43.672 132.688 43.072 133.036 42.52L132.256 42.196ZM129.484 43.78C129.364 43.36 129.04 42.724 128.704 42.244L128.032 42.52C128.356 43.012 128.668 43.672 128.776 44.092L129.484 43.78ZM134.74 44.992H136.828C136.612 46.48 136.288 47.752 135.772 48.82C135.292 47.704 134.956 46.408 134.728 45.028L134.74 44.992ZM131.464 49.06C131.308 49.708 131.068 50.236 130.708 50.668C130.24 50.44 129.76 50.224 129.28 50.032C129.436 49.72 129.616 49.396 129.784 49.06H131.464ZM138.472 44.992V44.152H134.992C135.16 43.492 135.316 42.796 135.436 42.088L134.524 41.956C134.2 44.068 133.576 46.072 132.568 47.332C132.772 47.476 133.156 47.776 133.288 47.944C133.612 47.512 133.912 47.008 134.164 46.444C134.44 47.668 134.788 48.784 135.244 49.756C134.656 50.656 133.864 51.376 132.844 51.94C132.472 51.664 131.992 51.352 131.464 51.064C131.872 50.524 132.148 49.864 132.316 49.06H133.36V48.316H130.156C130.3 48.028 130.432 47.74 130.564 47.476L130.36 47.428H130.876V45.64C131.452 46.072 132.208 46.648 132.52 46.936L133.012 46.3C132.688 46.06 131.392 45.244 130.876 44.944V44.884H133.312V44.152H130.876V41.956H130.048V44.152H127.588V44.884H129.808C129.22 45.664 128.308 46.408 127.456 46.792C127.624 46.948 127.84 47.26 127.948 47.464C128.68 47.068 129.448 46.408 130.048 45.7V47.356L129.736 47.284C129.592 47.608 129.424 47.956 129.244 48.316H127.516V49.06H128.872C128.548 49.684 128.224 50.296 127.96 50.752L128.728 51.028L128.92 50.692C129.316 50.86 129.712 51.052 130.096 51.244C129.484 51.688 128.644 51.988 127.54 52.18C127.708 52.348 127.888 52.672 127.948 52.912C129.232 52.636 130.18 52.24 130.876 51.664C131.428 51.988 131.908 52.312 132.28 52.612L132.556 52.324C132.712 52.528 132.868 52.792 132.94 52.948C134.116 52.348 135.016 51.58 135.724 50.644C136.312 51.604 137.044 52.372 137.968 52.912C138.088 52.672 138.376 52.324 138.58 52.156C137.62 51.652 136.864 50.836 136.264 49.804C136.996 48.52 137.452 46.936 137.752 44.992H138.472ZM147.952 43.528H142.012V42.88H147.952V43.528ZM147.952 44.704H142.012V44.044H147.952V44.704ZM148.828 42.34H141.16V45.244H148.828V42.34ZM150.352 45.736H139.672V46.42H150.352V45.736ZM141.772 49.396V48.712H144.556V49.396H141.772ZM141.772 47.512H144.556V48.184H141.772V47.512ZM148.312 48.184H145.408V47.512H148.312V48.184ZM148.312 49.396H145.408V48.712H148.312V49.396ZM145.408 51.928V51.232H149.44V50.608H145.408V49.948H149.188V46.96H140.944V49.948H144.556V50.608H140.596V51.232H144.556V51.928H139.6V52.624H150.412V51.928H145.408Z" fill="white"/>
<rect x="222" y="22" width="50" height="50" rx="4" fill="#330052"/>
<path d="M241 47L245.5 51.5L253 42.5" stroke="white" stroke-width="2" stroke-linecap="round" stroke-linejoin="round"/>
<rect x="17" y="17" width="260" height="60" rx="4" stroke="#57038A" stroke-width="0.5"/>
</g>
<defs>
<filter id="filter0_d" x="0.75" y="0.75" width="300.5" height="100.5" filterUnits="userSpaceOnUse" color-interpolation-filters="sRGB">
<feFlood flood-opacity="0" result="BackgroundImageFix"/>
<feColorMatrix in="SourceAlpha" type="matrix" values="0 0 0 0 0 0 0 0 0 0 0 0 0 0 0 0 0 0 127 0"/>
<feOffset dx="4" dy="4"/>
<feGaussianBlur stdDeviation="10"/>
<feColorMatrix type="matrix" values="0 0 0 0 0 0 0 0 0 0 0 0 0 0 0 0 0 0 0.4 0"/>
<feBlend mode="normal" in2="BackgroundImageFix" result="effect1_dropShadow"/>
<feBlend mode="normal" in="SourceGraphic" in2="effect1_dropShadow" result="shape"/>
</filter>
</defs>
</svg>
