<svg width="32" height="32" viewBox="0 0 32 32" fill="none" xmlns="http://www.w3.org/2000/svg">
<rect x="32" y="32" width="32" height="32" rx="8" transform="rotate(-180 32 32)" fill="#330052"/>
<path d="M18.4654 27L19.2093 26.7938L13.2316 6.65549C12.5619 5.91046 11.0697 6.32657 11 7.27405L18.4654 27Z" fill="white"/>
<path d="M20.2339 26.5812L21 26.4587L17.7138 5.50082C17.1466 4.67414 15.6097 4.92232 15.4156 5.8682L20.2339 26.5812Z" fill="white"/>
<path d="M11.4344 14.4041C10.6576 16.0052 10.6913 17.5573 11.2288 18.99C11.7663 20.4228 12.7618 21.614 14.4001 22.3091C14.8353 22.4938 14.4743 23.3259 14.1038 23.3312C10.4128 23.3648 8.11871 22.1908 7.4498 20.4078C6.78089 18.6248 7.73643 16.2309 10.539 13.8291C10.8222 13.5892 11.6408 13.9787 11.4344 14.4041Z" fill="#FEA116"/>
</svg>
