<svg width="100" height="100" viewBox="0 0 100 100" fill="none" xmlns="http://www.w3.org/2000/svg">
<path d="M50.3201 47.9C50.6458 47.9433 50.9768 47.9221 51.2942 47.8375C51.6117 47.7529 51.9094 47.6066 52.1704 47.4069C52.4313 47.2073 52.6503 46.9582 52.815 46.6739C52.9797 46.3896 53.0867 46.0757 53.1301 45.75C53.1734 45.4243 53.1522 45.0933 53.0676 44.7758C52.983 44.4583 52.8367 44.1606 52.637 43.8997C52.4374 43.6388 52.1883 43.4197 51.904 43.255C51.6197 43.0904 51.3058 42.9833 50.9801 42.94C46.2801 42.315 42.0801 45.885 42.0801 51.095C42.0801 51.758 42.3435 52.3939 42.8123 52.8627C43.2811 53.3316 43.917 53.595 44.5801 53.595C45.2431 53.595 45.879 53.3316 46.3478 52.8627C46.8167 52.3939 47.0801 51.758 47.0801 51.095C47.0801 48.81 48.7201 47.68 50.3201 47.895V47.9Z" fill="#2C0146"/>
<path d="M52.0404 74.82C58.0012 74.82 63.7178 72.4521 67.9326 68.2372C72.1475 64.0223 74.5154 58.3057 74.5154 52.345C74.5154 46.3843 72.1475 40.6677 67.9326 36.4528C63.7178 32.2379 58.0012 29.87 52.0404 29.87C46.0797 29.87 40.3631 32.2379 36.1482 36.4528C31.9333 40.6677 29.5654 46.3843 29.5654 52.345C29.5654 58.3057 31.9333 64.0223 36.1482 68.2372C40.3631 72.4521 46.0797 74.82 52.0404 74.82V74.82ZM52.0404 69.82C49.7456 69.82 47.4732 69.368 45.353 68.4898C43.2329 67.6116 41.3064 66.3244 39.6837 64.7017C38.061 63.079 36.7738 61.1526 35.8956 59.0324C35.0174 56.9122 34.5654 54.6398 34.5654 52.345C34.5654 50.0501 35.0174 47.7778 35.8956 45.6576C36.7738 43.5374 38.061 41.611 39.6837 39.9883C41.3064 38.3656 43.2329 37.0784 45.353 36.2002C47.4732 35.322 49.7456 34.87 52.0404 34.87C56.6751 34.87 61.1199 36.7111 64.3971 39.9883C67.6743 43.2655 69.5154 47.7103 69.5154 52.345C69.5154 56.9797 67.6743 61.4245 64.3971 64.7017C61.1199 67.9789 56.6751 69.82 52.0404 69.82Z" fill="#2C0146"/>
<path d="M58.1305 10.37C63.3555 10.71 68.2605 12.265 71.7655 14.475C79.8005 19.55 83.2655 25.13 85.2655 28.625C87.2105 32.015 91.0455 39.54 90.4955 47.745C90.354 49.9554 90.0633 52.1537 89.6255 54.325L89.4255 55.395C89.1455 57.015 88.9705 58.675 89.2655 62.285C89.6155 66.54 88.7555 71.2 86.9555 75.335C85.1555 79.46 82.3305 83.27 78.5655 85.62C70.7405 90.51 61.3155 91.57 52.4755 88.035C48.4305 86.42 47.0655 86.035 45.5355 85.945C44.459 85.9033 43.3811 85.9133 42.3055 85.975H42.2705C40.8205 86.035 38.9605 86.105 36.3755 86.105C25.0105 86.105 17.4505 79.305 13.5905 71.885C7.93551 61.005 8.09051 44.535 20.5255 34.72C24.3255 31.72 25.4605 30.72 26.7405 28.585C28.8455 25.075 30.8455 22.325 33.2655 19.955C35.6905 17.575 38.4455 15.66 41.9855 13.715C47.1305 10.885 52.8855 10.025 58.1305 10.365V10.37ZM57.8055 15.36C53.3055 15.06 48.5355 15.82 44.3905 18.1C41.1205 19.9 38.7705 21.56 36.7655 23.525C34.7605 25.495 33.0105 27.855 31.0305 31.155C29.2205 34.17 27.3905 35.67 23.6255 38.64C13.5755 46.575 13.1455 60.19 18.0255 69.58C21.2505 75.78 27.3155 81.105 36.3755 81.105C38.8655 81.105 40.6555 81.035 42.0905 80.98H42.1855C43.5655 80.93 44.7355 80.88 45.8505 80.955C48.2655 81.105 50.3005 81.78 54.3305 83.395C61.6355 86.315 69.3905 85.46 75.9155 81.38C78.6055 79.7 80.8655 76.805 82.3705 73.335C83.8805 69.875 84.5605 66.045 84.2855 62.695C83.9555 58.7 84.1355 56.615 84.5005 54.535L84.7255 53.33C85.0105 51.815 85.3155 50.205 85.5055 47.41C85.9555 40.775 82.7905 34.36 80.9305 31.11C79.1255 27.97 76.1605 23.16 69.0955 18.705C66.3955 17 62.3255 15.655 57.8055 15.355V15.36Z" fill="#2C0146"/>
</svg>
