<svg width="54" height="54" viewBox="0 0 54 54" fill="none" xmlns="http://www.w3.org/2000/svg">
<g filter="url(#filter0_d)">
<rect x="7" y="5" width="40" height="40" rx="20" fill="#2C0146"/>
<path fill-rule="evenodd" clip-rule="evenodd" d="M36.3777 29.2071H18.753C18.4342 29.2071 18.1777 29.4506 18.1777 29.7494C18.1777 30.0506 18.4354 30.2942 18.753 30.2942H36.3777C36.6966 30.2942 36.9542 30.0506 36.9542 29.7494C36.9542 29.4506 36.6954 29.2071 36.3777 29.2071Z" fill="#FEA116"/>
<path fill-rule="evenodd" clip-rule="evenodd" d="M27.573 19.9424C23.0565 19.9424 19.3965 23.4812 19.3965 27.8459H35.7494C35.7506 23.4812 32.0883 19.9424 27.573 19.9424V19.9424Z" fill="#FEA116"/>
<path fill-rule="evenodd" clip-rule="evenodd" d="M26.4119 18.5294H28.7283V20.8459H26.4119V18.5294Z" fill="#FEA116"/>
<rect x="7" y="5" width="40" height="40" rx="20" stroke="#57038A" stroke-width="0.5"/>
</g>
<defs>
<filter id="filter0_d" x="0.75" y="0.75" width="52.5" height="52.5" filterUnits="userSpaceOnUse" color-interpolation-filters="sRGB">
<feFlood flood-opacity="0" result="BackgroundImageFix"/>
<feColorMatrix in="SourceAlpha" type="matrix" values="0 0 0 0 0 0 0 0 0 0 0 0 0 0 0 0 0 0 127 0"/>
<feOffset dy="2"/>
<feGaussianBlur stdDeviation="3"/>
<feColorMatrix type="matrix" values="0 0 0 0 0 0 0 0 0 0 0 0 0 0 0 0 0 0 0.2 0"/>
<feBlend mode="normal" in2="BackgroundImageFix" result="effect1_dropShadow"/>
<feBlend mode="normal" in="SourceGraphic" in2="effect1_dropShadow" result="shape"/>
</filter>
</defs>
</svg>
