<svg width="42" height="42" viewBox="0 0 42 42" fill="none" xmlns="http://www.w3.org/2000/svg">
<rect x="1" y="1" width="40" height="40" rx="20" fill="#2C0146"/>
<path d="M30.375 21C30.375 26.1875 26.1875 30.375 21 30.375C15.8125 30.375 11.625 26.1875 11.625 21C11.625 15.8125 15.8125 11.625 21 11.625C26.1875 11.625 30.375 15.8125 30.375 21Z" fill="#FEA116"/>
<path d="M24.1245 25.9688C22.562 24.4063 23.2495 25.0938 24.9058 23.4375C26.562 21.7813 25.8745 21.0625 27.437 22.6563C28.9995 24.2188 29.062 25.75 28.1245 26.6875C27.2183 27.5938 25.687 27.5313 24.1245 25.9688Z" fill="#FF717F"/>
<path d="M25.25 23.0938L27.375 25.9062L24.5938 23.7813L25.25 23.0938Z" fill="#E2596C"/>
<path d="M19.9066 18.7813C19.3128 17.1875 18.4378 16.375 17.5628 16.375C16.6878 16.375 15.8128 17.1875 15.2191 18.7813C15.1566 18.9375 15.4691 19.2188 15.6253 19.0625C16.1878 18.4688 16.8753 18.2188 17.5628 18.2188C18.2503 18.2188 18.9378 18.4688 19.5003 19.0625C19.6878 19.2188 19.9691 18.9375 19.9066 18.7813Z" fill="#664E27"/>
<path d="M26.7503 18.7813C26.1566 17.1875 25.2816 16.375 24.4066 16.375C23.5316 16.375 22.6566 17.1875 22.0628 18.7813C22.0003 18.9375 22.3128 19.2188 22.4691 19.0625C23.0316 18.4688 23.7191 18.2188 24.4066 18.2188C25.0941 18.2188 25.7816 18.4688 26.3441 19.0625C26.5003 19.2188 26.8128 18.9375 26.7503 18.7813Z" fill="#664E27"/>
<path d="M26.0315 21.3125C24.6878 23.2188 23.0628 23.6875 21.0003 23.6875C18.9378 23.6875 17.3128 23.2188 15.969 21.3125C15.7815 21.0625 15.2815 21.2188 15.4065 21.5938C16.1253 24.0938 18.5315 25.5625 21.0315 25.5625C23.5315 25.5625 25.9378 24.0938 26.6565 21.5938C26.719 21.2188 26.219 21.0625 26.0315 21.3125" fill="#664E27"/>
<rect x="1" y="1" width="40" height="40" rx="20" stroke="#57038A" stroke-width="0.5"/>
</svg>
