<svg width="40" height="40" viewBox="0 0 40 40" fill="none" xmlns="http://www.w3.org/2000/svg">
<rect width="40" height="40" rx="20" fill="#EDF2FE"/>
<path d="M10.625 20C10.625 25.1875 14.8125 29.375 20 29.375C25.1875 29.375 29.375 25.1875 29.375 20C29.375 14.8125 25.1875 10.625 20 10.625C14.8125 10.625 10.625 14.8125 10.625 20Z" fill="#FFDD67"/>
<path d="M16.875 24.9688C18.4375 23.4063 17.75 24.0938 16.0937 22.4375C14.4375 20.7813 15.125 20.0625 13.5625 21.6563C12 23.2188 11.9375 24.75 12.875 25.6875C13.7812 26.5938 15.3125 26.5313 16.875 24.9688Z" fill="#FF717F"/>
<path d="M15.75 22.0938L13.625 24.9062L16.4062 22.7813L15.75 22.0938Z" fill="#E2596C"/>
<path d="M21.0939 17.7813C21.6877 16.1875 22.5627 15.375 23.4377 15.375C24.3127 15.375 25.1877 16.1875 25.7814 17.7813C25.8439 17.9375 25.5314 18.2188 25.3751 18.0625C24.8127 17.4688 24.1252 17.2188 23.4377 17.2188C22.7502 17.2188 22.0627 17.4688 21.5002 18.0625C21.3127 18.2188 21.0314 17.9375 21.0939 17.7813Z" fill="#664E27"/>
<path d="M14.2501 17.7813C14.8439 16.1875 15.7189 15.375 16.5939 15.375C17.4689 15.375 18.3439 16.1875 18.9376 17.7813C19.0001 17.9375 18.6877 18.2188 18.5314 18.0625C17.9689 17.4688 17.2814 17.2188 16.5939 17.2188C15.9064 17.2188 15.2189 17.4688 14.6564 18.0625C14.5002 18.2188 14.1876 17.9375 14.2501 17.7813Z" fill="#664E27"/>
<path d="M14.969 20.3125C16.3127 22.2188 17.9377 22.6875 20.0002 22.6875C22.0627 22.6875 23.6877 22.2188 25.0315 20.3125C25.219 20.0625 25.719 20.2188 25.594 20.5938C24.8752 23.0938 22.469 24.5625 19.969 24.5625C17.469 24.5625 15.0627 23.0938 14.344 20.5938C14.2815 20.2188 14.7815 20.0625 14.969 20.3125Z" fill="#664E27"/>
</svg>
