<svg width="40" height="40" viewBox="0 0 40 40" fill="none" xmlns="http://www.w3.org/2000/svg">
<rect width="40" height="40" rx="20" fill="#EDF2FE"/>
<path d="M29.375 20C29.375 25.1875 25.1875 29.375 20 29.375C14.8125 29.375 10.625 25.1875 10.625 20C10.625 14.8125 14.8125 10.625 20 10.625C25.1875 10.625 29.375 14.8125 29.375 20Z" fill="#FFDD67"/>
<path d="M23.125 24.9687C21.5625 23.4062 22.25 24.0937 23.9063 22.4374C25.5625 20.7812 24.875 20.0624 26.4375 21.6562C28 23.2187 28.0625 24.7499 27.125 25.6874C26.2188 26.5937 24.6875 26.5312 23.125 24.9687Z" fill="#FF717F"/>
<path d="M24.25 22.0938L26.375 24.9062L23.5938 22.7813L24.25 22.0938Z" fill="#E2596C"/>
<path d="M18.9063 17.7813C18.3126 16.1875 17.4376 15.375 16.5626 15.375C15.6876 15.375 14.8126 16.1875 14.2188 17.7813C14.1563 17.9375 14.4688 18.2188 14.6251 18.0625C15.1876 17.4688 15.8751 17.2188 16.5626 17.2188C17.2501 17.2188 17.9376 17.4688 18.5001 18.0625C18.6876 18.2188 18.9688 17.9375 18.9063 17.7813Z" fill="#664E27"/>
<path d="M25.7501 17.7813C25.1563 16.1875 24.2813 15.375 23.4063 15.375C22.5313 15.375 21.6563 16.1875 21.0626 17.7813C21.0001 17.9375 21.3126 18.2188 21.4688 18.0625C22.0313 17.4688 22.7188 17.2188 23.4063 17.2188C24.0938 17.2188 24.7813 17.4688 25.3438 18.0625C25.5001 18.2188 25.8126 17.9375 25.7501 17.7813Z" fill="#664E27"/>
<path d="M25.0313 20.3124C23.6875 22.2187 22.0625 22.6874 20 22.6874C17.9375 22.6874 16.3125 22.2187 14.9688 20.3124C14.7813 20.0624 14.2813 20.2187 14.4063 20.5937C15.125 23.0937 17.5313 24.5624 20.0313 24.5624C22.5313 24.5624 24.9375 23.0937 25.6563 20.5937C25.7188 20.2187 25.2188 20.0624 25.0313 20.3124Z" fill="#664E27"/>
</svg>
