<svg width="161" height="162" viewBox="0 0 161 162" fill="none" xmlns="http://www.w3.org/2000/svg">
<path d="M4 143.134C10.8695 136.175 39.0089 163.952 45.8784 156.992C52.7479 150.033 24.6085 122.256 31.478 115.297C38.3475 108.338 66.4869 136.115 73.3403 129.172C80.21 122.213 52.0706 94.4359 58.9238 87.4933C65.7935 80.534 93.9329 108.311 100.786 101.368C107.656 94.4091 79.5163 66.6321 86.3855 59.6733C93.2551 52.7141 121.395 80.491 128.264 73.5317C135.133 66.573 106.994 38.796 113.864 31.8367C120.733 24.8774 148.873 52.6544 155.742 45.6951C162.611 38.7363 134.472 10.9593 141.342 4.00005" stroke="#2C0146" stroke-width="7" stroke-miterlimit="10" stroke-linecap="round"/>
</svg>
