<svg width="168" height="169" viewBox="0 0 168 169" fill="none" xmlns="http://www.w3.org/2000/svg">
<path d="M1 140.134C7.8695 133.175 36.0089 160.952 42.8784 153.992C49.7479 147.033 21.6085 119.256 28.478 112.297C35.3475 105.338 63.4869 133.115 70.3403 126.172C77.21 119.213 49.0706 91.4359 55.9238 84.4933C62.7935 77.534 90.9329 105.311 97.7861 98.3683C104.656 91.4091 76.5163 63.6321 83.3855 56.6733C90.2551 49.714 118.395 77.491 125.264 70.5317C132.133 63.5729 103.994 35.796 110.864 28.8367C117.733 21.8774 145.873 49.6543 152.742 42.6951C159.611 35.7363 131.472 7.95931 138.342 1.00002" stroke="url(#paint0_linear)" stroke-miterlimit="10" stroke-linecap="round"/>
<defs>
<linearGradient id="paint0_linear" x1="10.557" y1="158.594" x2="174.975" y2="-7.96919" gradientUnits="userSpaceOnUse">
<stop stop-color="#EDF2FE"/>
<stop offset="1" stop-color="#D3DAFF"/>
</linearGradient>
</defs>
</svg>
