<svg width="157" height="158" viewBox="0 0 157 158" fill="none" xmlns="http://www.w3.org/2000/svg">
<path d="M2 141.134C8.8695 134.175 37.0089 161.952 43.8784 154.992C50.7479 148.033 22.6085 120.256 29.478 113.297C36.3475 106.338 64.4869 134.115 71.3403 127.172C78.21 120.213 50.0706 92.4359 56.9238 85.4933C63.7935 78.534 91.9329 106.311 98.7861 99.3684C105.656 92.4091 77.5163 64.6321 84.3855 57.6733C91.2551 50.7141 119.395 78.491 126.264 71.5317C133.133 64.573 104.994 36.796 111.864 29.8367C118.733 22.8774 146.873 50.6544 153.742 43.6951C160.611 36.7363 132.472 8.95934 139.342 2.00005" stroke="#2C0146" stroke-width="3" stroke-miterlimit="10" stroke-linecap="round"/>
</svg>
