<svg width="440" height="550" viewBox="0 0 440 550" fill="none" xmlns="http://www.w3.org/2000/svg">
<g filter="url(#filter0_d)">
<g clip-path="url(#clip0)">
<rect x="60" y="27" width="350" height="490" rx="8" fill="white"/>
<g filter="url(#filter1_d)">
<rect x="270" y="439" width="120" height="40" rx="20" fill="url(#paint0_linear)"/>
</g>
<rect x="100" y="439" width="40" height="40" rx="8" fill="#F5FAF5"/>
<path fill-rule="evenodd" clip-rule="evenodd" d="M129.378 464.207H111.753C111.434 464.207 111.178 464.451 111.178 464.749C111.178 465.051 111.435 465.294 111.753 465.294H129.378C129.697 465.294 129.954 465.051 129.954 464.749C129.954 464.451 129.695 464.207 129.378 464.207Z" fill="#399431"/>
<path fill-rule="evenodd" clip-rule="evenodd" d="M120.573 454.942C116.056 454.942 112.396 458.481 112.396 462.846H128.749C128.751 458.481 125.088 454.942 120.573 454.942Z" fill="#399431"/>
<path fill-rule="evenodd" clip-rule="evenodd" d="M119.412 453.529H121.728V455.846H119.412V453.529Z" fill="#399431"/>
</g>
</g>
<rect x="40" y="57" width="350" height="240" rx="4" fill="url(#paint1_linear)"/>
<g filter="url(#filter2_d)">
<rect x="40" y="317" width="350" height="60" rx="4" fill="white"/>
<rect x="70" y="341" width="120" height="12" rx="6" fill="url(#paint2_linear)"/>
<rect x="195" y="341" width="12" height="12" rx="6" fill="url(#paint3_linear)"/>
<g filter="url(#filter3_d)">
<rect x="300" y="337" width="20" height="20" rx="10" fill="white"/>
</g>
<g filter="url(#filter4_d)">
<rect x="330" y="337" width="20" height="20" rx="10" fill="white"/>
</g>
</g>
<defs>
<filter id="filter0_d" x="30" y="0" width="410" height="550" filterUnits="userSpaceOnUse" color-interpolation-filters="sRGB">
<feFlood flood-opacity="0" result="BackgroundImageFix"/>
<feColorMatrix in="SourceAlpha" type="matrix" values="0 0 0 0 0 0 0 0 0 0 0 0 0 0 0 0 0 0 127 0"/>
<feOffset dy="3"/>
<feGaussianBlur stdDeviation="15"/>
<feColorMatrix type="matrix" values="0 0 0 0 0 0 0 0 0 0 0 0 0 0 0 0 0 0 0.05 0"/>
<feBlend mode="normal" in2="BackgroundImageFix" result="effect1_dropShadow"/>
<feBlend mode="normal" in="SourceGraphic" in2="effect1_dropShadow" result="shape"/>
</filter>
<filter id="filter1_d" x="230" y="407" width="200" height="120" filterUnits="userSpaceOnUse" color-interpolation-filters="sRGB">
<feFlood flood-opacity="0" result="BackgroundImageFix"/>
<feColorMatrix in="SourceAlpha" type="matrix" values="0 0 0 0 0 0 0 0 0 0 0 0 0 0 0 0 0 0 127 0"/>
<feOffset dy="8"/>
<feGaussianBlur stdDeviation="20"/>
<feColorMatrix type="matrix" values="0 0 0 0 0 0 0 0 0 0 0 0 0 0 0 0 0 0 0.1 0"/>
<feBlend mode="normal" in2="BackgroundImageFix" result="effect1_dropShadow"/>
<feBlend mode="normal" in="SourceGraphic" in2="effect1_dropShadow" result="shape"/>
</filter>
<filter id="filter2_d" x="0" y="285" width="430" height="140" filterUnits="userSpaceOnUse" color-interpolation-filters="sRGB">
<feFlood flood-opacity="0" result="BackgroundImageFix"/>
<feColorMatrix in="SourceAlpha" type="matrix" values="0 0 0 0 0 0 0 0 0 0 0 0 0 0 0 0 0 0 127 0"/>
<feOffset dy="8"/>
<feGaussianBlur stdDeviation="20"/>
<feColorMatrix type="matrix" values="0 0 0 0 0 0 0 0 0 0 0 0 0 0 0 0 0 0 0.1 0"/>
<feBlend mode="normal" in2="BackgroundImageFix" result="effect1_dropShadow"/>
<feBlend mode="normal" in="SourceGraphic" in2="effect1_dropShadow" result="shape"/>
</filter>
<filter id="filter3_d" x="285" y="324" width="50" height="50" filterUnits="userSpaceOnUse" color-interpolation-filters="sRGB">
<feFlood flood-opacity="0" result="BackgroundImageFix"/>
<feColorMatrix in="SourceAlpha" type="matrix" values="0 0 0 0 0 0 0 0 0 0 0 0 0 0 0 0 0 0 127 0"/>
<feOffset dy="2"/>
<feGaussianBlur stdDeviation="7.5"/>
<feColorMatrix type="matrix" values="0 0 0 0 0 0 0 0 0 0 0 0 0 0 0 0 0 0 0.1 0"/>
<feBlend mode="normal" in2="BackgroundImageFix" result="effect1_dropShadow"/>
<feBlend mode="normal" in="SourceGraphic" in2="effect1_dropShadow" result="shape"/>
</filter>
<filter id="filter4_d" x="315" y="324" width="50" height="50" filterUnits="userSpaceOnUse" color-interpolation-filters="sRGB">
<feFlood flood-opacity="0" result="BackgroundImageFix"/>
<feColorMatrix in="SourceAlpha" type="matrix" values="0 0 0 0 0 0 0 0 0 0 0 0 0 0 0 0 0 0 127 0"/>
<feOffset dy="2"/>
<feGaussianBlur stdDeviation="7.5"/>
<feColorMatrix type="matrix" values="0 0 0 0 0 0 0 0 0 0 0 0 0 0 0 0 0 0 0.1 0"/>
<feBlend mode="normal" in2="BackgroundImageFix" result="effect1_dropShadow"/>
<feBlend mode="normal" in="SourceGraphic" in2="effect1_dropShadow" result="shape"/>
</filter>
<linearGradient id="paint0_linear" x1="266.057" y1="459" x2="409.714" y2="459" gradientUnits="userSpaceOnUse">
<stop stop-color="#EDF2FE"/>
<stop offset="1" stop-color="#D3DAFF"/>
</linearGradient>
<linearGradient id="paint1_linear" x1="28.5" y1="177" x2="447.5" y2="177" gradientUnits="userSpaceOnUse">
<stop stop-color="#EDF2FE"/>
<stop offset="1" stop-color="#D3DAFF"/>
</linearGradient>
<linearGradient id="paint2_linear" x1="66.0571" y1="347" x2="209.714" y2="347" gradientUnits="userSpaceOnUse">
<stop stop-color="#EDF2FE"/>
<stop offset="1" stop-color="#D3DAFF"/>
</linearGradient>
<linearGradient id="paint3_linear" x1="194.606" y1="347" x2="208.971" y2="347" gradientUnits="userSpaceOnUse">
<stop stop-color="#EDF2FE"/>
<stop offset="1" stop-color="#D3DAFF"/>
</linearGradient>
<clipPath id="clip0">
<rect x="60" y="27" width="350" height="490" rx="8" fill="white"/>
</clipPath>
</defs>
</svg>
