<svg width="161" height="214" viewBox="0 0 161 214" fill="none" xmlns="http://www.w3.org/2000/svg">
<path d="M78.9658 0.302655C78.912 0.0883959 78.6947 -0.0416698 78.4804 0.0121446C78.2662 0.0659594 78.1361 0.283276 78.1899 0.497535L79.1524 4.32958C79.2062 4.54384 79.4235 4.67391 79.6378 4.62009C79.852 4.56628 79.9821 4.34896 79.9283 4.1347L78.9658 0.302655Z" fill="black"/>
<path d="M80.7304 7.32807C80.6765 7.11382 80.4592 6.98375 80.245 7.03756C80.0307 7.09138 79.9006 7.3087 79.9545 7.52295L82.8419 19.0191C82.8957 19.2334 83.113 19.3634 83.3273 19.3096C83.5415 19.2558 83.6716 19.0385 83.6178 18.8242L80.7304 7.32807Z" fill="black"/>
<path d="M96.3742 10.4173C96.4483 10.2092 96.3396 9.98039 96.1315 9.90632C95.9234 9.83225 95.6946 9.94092 95.6205 10.149L94.8244 12.3859C94.7504 12.594 94.859 12.8228 95.0671 12.8969C95.2753 12.9709 95.504 12.8623 95.5781 12.6541L96.3742 10.4173Z" fill="black"/>
<path d="M61.0495 21.4619C60.8511 21.3646 60.6115 21.4465 60.5142 21.6448C60.4168 21.8431 60.4987 22.0828 60.697 22.1801L70.7644 27.1202C70.9627 27.2175 71.2024 27.1356 71.2997 26.9373C71.397 26.7389 71.3151 26.4993 71.1168 26.402L61.0495 21.4619Z" fill="black"/>
<path d="M95.2686 14.0657C95.3282 13.8529 95.204 13.6322 94.9913 13.5726C94.7786 13.513 94.5578 13.6372 94.4982 13.8499L93.0664 18.9623C93.0069 19.175 93.131 19.3958 93.3437 19.4553C93.5565 19.5149 93.7772 19.3908 93.8368 19.178L95.2686 14.0657Z" fill="black"/>
<path d="M107.625 20.6211C107.784 20.4681 107.79 20.2149 107.636 20.0555C107.483 19.8962 107.23 19.8911 107.071 20.0441L103.242 23.7217C103.083 23.8747 103.077 24.1279 103.23 24.2873C103.383 24.4466 103.637 24.4517 103.796 24.2987L107.625 20.6211Z" fill="black"/>
<path d="M58.8806 40.9201C58.6664 40.9739 58.5363 41.1912 58.5901 41.4055C58.644 41.6197 58.8613 41.7498 59.0755 41.696L68.017 39.4502C68.2312 39.3964 68.3613 39.1791 68.3075 38.9648C68.2537 38.7505 68.0364 38.6205 67.8221 38.6743L58.8806 40.9201Z" fill="black"/>
<path d="M70.9072 50.2231C71.0748 50.0792 71.0939 49.8266 70.95 49.6591C70.806 49.4915 70.5535 49.4723 70.3859 49.6163L67.0351 52.4948C66.8675 52.6388 66.8484 52.8913 66.9923 53.0589C67.1363 53.2264 67.3888 53.2456 67.5564 53.1016L70.9072 50.2231Z" fill="black"/>
<path d="M65.9837 54.8393C66.1397 54.683 66.1395 54.4297 65.9831 54.2737C65.8267 54.1176 65.5734 54.1179 65.4174 54.2743L62.7053 56.9924C62.5492 57.1488 62.5495 57.402 62.7059 57.5581C62.8623 57.7141 63.1155 57.7138 63.2716 57.5574L65.9837 54.8393Z" fill="black"/>
<path d="M150.17 10.5899C150.17 10.369 150.349 10.1899 150.57 10.1899H159.789C160.01 10.1899 160.189 10.369 160.189 10.5899C160.189 10.8108 160.01 10.9899 159.789 10.9899H150.97V32.3208C150.97 32.5417 150.791 32.7208 150.57 32.7208C150.349 32.7208 150.17 32.5417 150.17 32.3208V10.5899Z" fill="black"/>
<path d="M144.902 34.9548C144.902 34.7339 145.081 34.5549 145.302 34.5549H159.789C160.01 34.5549 160.189 34.7339 160.189 34.9548C160.189 35.1758 160.01 35.3549 159.789 35.3549H145.702V49.4421C145.702 49.663 145.523 49.8421 145.302 49.8421C145.081 49.8421 144.902 49.663 144.902 49.4421V34.9548Z" fill="black"/>
<path d="M102.099 54.0517C102.099 53.8308 102.278 53.6517 102.499 53.6517H159.789C160.01 53.6517 160.189 53.8308 160.189 54.0517C160.189 54.2726 160.01 54.4517 159.789 54.4517H102.899V106.074C102.899 106.295 102.72 106.474 102.499 106.474C102.278 106.474 102.099 106.295 102.099 106.074V54.0517Z" fill="black"/>
<path fill-rule="evenodd" clip-rule="evenodd" d="M110.001 73.807C110.001 73.5861 110.18 73.407 110.401 73.407H132.79C133.011 73.407 133.19 73.5861 133.19 73.807V97.5135C133.19 97.7344 133.011 97.9135 132.79 97.9135H110.401C110.18 97.9135 110.001 97.7344 110.001 97.5135V73.807ZM110.801 74.207V97.1135H132.39V74.207H115.41V89.6113C115.41 89.8322 115.231 90.0113 115.01 90.0113C114.789 90.0113 114.61 89.8322 114.61 89.6113V74.207H110.801Z" fill="black"/>
<path d="M140.951 73.807C140.951 73.5861 141.13 73.407 141.351 73.407H159.789C160.01 73.407 160.189 73.5861 160.189 73.807C160.189 74.028 160.01 74.207 159.789 74.207H145.702V89.6113C145.702 89.8322 145.523 90.0113 145.302 90.0113C145.081 90.0113 144.902 89.8322 144.902 89.6113V74.207H141.751V97.1135H159.789C160.01 97.1135 160.189 97.2925 160.189 97.5135C160.189 97.7344 160.01 97.9135 159.789 97.9135H141.351C141.13 97.9135 140.951 97.7344 140.951 97.5135V73.807Z" fill="black"/>
<path d="M73.7826 114.635C73.7826 114.414 73.9617 114.235 74.1826 114.235H145.302C145.523 114.235 145.702 114.414 145.702 114.635V140.975C145.702 141.196 145.523 141.375 145.302 141.375C145.081 141.375 144.902 141.196 144.902 140.975V115.035H74.5826V154.145C74.5826 154.366 74.4035 154.545 74.1826 154.545C73.9617 154.545 73.7826 154.366 73.7826 154.145V114.635Z" fill="black"/>
<path d="M78.1337 117.527C78.3546 117.527 78.5337 117.706 78.5337 117.927V124.771H104.733V118.327H82.0847C81.8638 118.327 81.6847 118.148 81.6847 117.927C81.6847 117.706 81.8638 117.527 82.0847 117.527H105.133C105.354 117.527 105.533 117.706 105.533 117.927V125.171C105.533 125.392 105.354 125.571 105.133 125.571H78.1337C77.9128 125.571 77.7337 125.392 77.7337 125.171V117.927C77.7337 117.706 77.9128 117.527 78.1337 117.527Z" fill="black"/>
<path d="M113.293 117.927C113.293 117.706 113.472 117.527 113.693 117.527H136.741C136.962 117.527 137.141 117.706 137.141 117.927C137.141 118.148 136.962 118.327 136.741 118.327H114.093V124.771H140.951V117.927C140.951 117.706 141.13 117.527 141.351 117.527C141.572 117.527 141.751 117.706 141.751 117.927V125.171C141.751 125.392 141.572 125.571 141.351 125.571H113.693C113.472 125.571 113.293 125.392 113.293 125.171V117.927Z" fill="black"/>
<path d="M121.195 148.219C121.195 147.998 121.375 147.819 121.595 147.819H159.789C160.01 147.819 160.189 147.998 160.189 148.219C160.189 148.44 160.01 148.619 159.789 148.619H121.995V203.534C121.995 203.755 121.816 203.934 121.595 203.934C121.375 203.934 121.195 203.755 121.195 203.534V148.219Z" fill="black"/>
<path fill-rule="evenodd" clip-rule="evenodd" d="M42.8326 160.072C42.8326 159.851 43.0116 159.672 43.2326 159.672H113.693C113.914 159.672 114.093 159.851 114.093 160.072V183.059L117.368 193.537C117.38 193.575 117.386 193.616 117.386 193.656V196.949C117.386 197.17 117.207 197.349 116.986 197.349H110.801V208.143C110.801 208.364 110.622 208.543 110.401 208.543H102.499C102.278 208.543 102.099 208.364 102.099 208.143C102.099 207.923 102.278 207.743 102.499 207.743H110.001V197.349H46.9251V207.743H92.6209C92.8419 207.743 93.0209 207.923 93.0209 208.143C93.0209 208.364 92.8419 208.543 92.6209 208.543H46.5251C46.3042 208.543 46.1251 208.364 46.1251 208.143V197.349H39.2815C39.0606 197.349 38.8815 197.17 38.8815 196.949V193.656C38.8815 193.608 38.8901 193.561 38.907 193.516L42.8326 183.047V160.072ZM43.5098 183.52L39.8587 193.256H66.607L68.4325 183.52H43.5098ZM69.2465 183.52L67.421 193.256H93.4257L90.9916 183.52H69.2465ZM91.8162 183.52L94.2503 193.256H116.442L113.399 183.52H91.8162ZM113.293 182.72V160.472H43.6326V182.72H113.293ZM116.586 194.056H94.4259L94.9244 196.549H116.586V194.056ZM94.1086 196.549L93.61 194.056H67.2669L66.7684 196.549H94.1086ZM65.9525 196.549L66.4511 194.056H39.6815V196.549H65.9525Z" fill="black"/>
<path d="M128.439 162.706C128.439 162.485 128.618 162.306 128.839 162.306H150.57C150.791 162.306 150.97 162.485 150.97 162.706C150.97 162.927 150.791 163.106 150.57 163.106H129.239V196.949C129.239 197.17 129.06 197.349 128.839 197.349C128.618 197.349 128.439 197.17 128.439 196.949V162.706Z" fill="black"/>
<path d="M131.473 170.208C131.694 170.208 131.873 170.387 131.873 170.608V185.096C131.873 185.316 131.694 185.496 131.473 185.496C131.252 185.496 131.073 185.316 131.073 185.096V170.608C131.073 170.387 131.252 170.208 131.473 170.208Z" fill="black"/>
<path d="M19.1261 208.143C19.1261 207.923 19.3052 207.743 19.5261 207.743H41.9155C42.1364 207.743 42.3155 207.923 42.3155 208.143C42.3155 208.364 42.1364 208.543 41.9155 208.543H19.5261C19.3052 208.543 19.1261 208.364 19.1261 208.143Z" fill="black"/>
<path d="M0.0292969 213.412C0.0292969 213.191 0.208384 213.012 0.429298 213.012H85.3773C85.5982 213.012 85.7773 213.191 85.7773 213.412C85.7773 213.632 85.5982 213.812 85.3773 213.812H0.429298C0.208384 213.812 0.0292969 213.632 0.0292969 213.412Z" fill="black"/>
<path d="M113.73 61.4937C113.329 61.1883 112.837 61.0274 112.333 61.0372C111.829 61.047 111.343 61.2269 110.955 61.5476C110.566 61.8684 110.297 62.3111 110.192 62.804C110.086 63.2969 110.151 63.8108 110.375 64.2625C110.598 64.7141 110.968 65.0768 111.424 65.2917C111.88 65.5065 112.395 65.561 112.886 65.4461C113.376 65.3312 113.814 65.0538 114.127 64.6589C114.44 64.264 114.611 63.7748 114.611 63.2709H115.411C115.411 63.9553 115.179 64.6197 114.754 65.156C114.329 65.6923 113.734 66.069 113.068 66.225C112.402 66.381 111.702 66.3071 111.083 66.0153C110.464 65.7235 109.961 65.2309 109.658 64.6175C109.354 64.0042 109.266 63.3062 109.409 62.6368C109.552 61.9675 109.918 61.3662 110.446 60.9306C110.973 60.495 111.633 60.2507 112.318 60.2374C113.002 60.2241 113.671 60.4426 114.215 60.8573L113.73 61.4937Z" fill="black"/>
<path d="M126.82 61.0372C127.324 61.0274 127.817 61.1883 128.218 61.4937L128.702 60.8573C128.158 60.4426 127.489 60.2241 126.805 60.2374C126.121 60.2507 125.461 60.495 124.933 60.9306C124.405 61.3662 124.04 61.9675 123.897 62.6368C123.754 63.3062 123.841 64.0042 124.145 64.6175C124.449 65.2309 124.951 65.7235 125.57 66.0153C126.189 66.3071 126.889 66.381 127.555 66.225C128.222 66.069 128.816 65.6923 129.241 65.156C129.666 64.6197 129.898 63.9553 129.898 63.2709H129.098C129.098 63.7748 128.927 64.264 128.614 64.6589C128.301 65.0538 127.864 65.3312 127.373 65.4461C126.882 65.561 126.367 65.5065 125.911 65.2917C125.455 65.0768 125.086 64.7141 124.862 64.2625C124.638 63.8108 124.574 63.2969 124.679 62.804C124.784 62.3111 125.053 61.8684 125.442 61.5476C125.831 61.2269 126.317 61.047 126.82 61.0372Z" fill="black"/>
<path d="M157.192 61.4937C156.791 61.1883 156.299 61.0274 155.795 61.0372C155.291 61.047 154.805 61.2269 154.417 61.5476C154.028 61.8684 153.759 62.3111 153.654 62.804C153.548 63.2969 153.613 63.8108 153.837 64.2625C154.06 64.7141 154.43 65.0768 154.886 65.2917C155.342 65.5065 155.857 65.561 156.348 65.4461C156.838 65.3312 157.276 65.0538 157.589 64.6589C157.902 64.264 158.072 63.7748 158.072 63.2709H158.872C158.872 63.9553 158.641 64.6197 158.216 65.156C157.791 65.6923 157.196 66.069 156.53 66.225C155.864 66.381 155.164 66.3071 154.545 66.0153C153.926 65.7235 153.423 65.2309 153.12 64.6175C152.816 64.0042 152.728 63.3062 152.871 62.6368C153.014 61.9675 153.38 61.3662 153.907 60.9306C154.435 60.495 155.095 60.2507 155.779 60.2374C156.464 60.2241 157.133 60.4426 157.677 60.8573L157.192 61.4937Z" fill="black"/>
<path d="M141.308 61.0372C141.812 61.0274 142.304 61.1883 142.705 61.4937L143.19 60.8573C142.645 60.4426 141.976 60.2241 141.292 60.2374C140.608 60.2507 139.948 60.495 139.42 60.9306C138.892 61.3662 138.527 61.9675 138.384 62.6368C138.241 63.3062 138.328 64.0042 138.632 64.6175C138.936 65.2309 139.438 65.7235 140.057 66.0153C140.677 66.3071 141.376 66.381 142.043 66.225C142.709 66.069 143.303 65.6923 143.728 65.156C144.154 64.6197 144.385 63.9553 144.385 63.2709H143.585C143.585 63.7748 143.415 64.264 143.102 64.6589C142.788 65.0538 142.351 65.3312 141.86 65.4461C141.37 65.561 140.854 65.5065 140.399 65.2917C139.943 65.0768 139.573 64.7141 139.349 64.2625C139.125 63.8108 139.061 63.2969 139.166 62.804C139.272 62.3111 139.541 61.8684 139.929 61.5476C140.318 61.2269 140.804 61.047 141.308 61.0372Z" fill="black"/>
<path d="M80.0158 21.7397C83.5006 20.0888 87.3967 19.5083 91.2115 20.0717C95.0262 20.635 98.5882 22.3169 101.447 24.9047C104.306 27.4925 106.333 30.8699 107.273 34.6099L106.497 34.8047C105.596 31.2183 103.652 27.9794 100.91 25.4978C98.1686 23.0162 94.7528 21.4033 91.0946 20.8631C87.4364 20.3228 83.7001 20.8795 80.3583 22.4627C77.0164 24.0458 74.2191 26.5844 72.3201 29.7574C70.421 32.9304 69.5055 36.5953 69.6893 40.2886C69.8731 43.9819 71.148 47.5378 73.3527 50.5066C75.5574 53.4753 78.593 55.7237 82.0755 56.9672L81.8065 57.7206C78.1749 56.4239 75.0095 54.0793 72.7104 50.9836C70.4114 47.8878 69.0819 44.1797 68.8903 40.3284C68.6986 36.4771 69.6533 32.6554 71.6336 29.3466C73.6139 26.0378 76.5309 23.3906 80.0158 21.7397Z" fill="black"/>
</svg>
