<svg width="161" height="214" viewBox="0 0 161 214" fill="none" xmlns="http://www.w3.org/2000/svg">
<path fill-rule="evenodd" clip-rule="evenodd" d="M78.9365 0.302654C78.8827 0.088395 78.6654 -0.0416708 78.4511 0.0121436C78.2369 0.0659585 78.1068 0.283275 78.1606 0.497534L79.1231 4.32958C79.1769 4.54384 79.3942 4.67391 79.6085 4.62009C79.8227 4.56628 79.9528 4.34896 79.899 4.1347L78.9365 0.302654ZM80.7011 7.32807C80.6472 7.11381 80.4299 6.98375 80.2157 7.03756C80.0014 7.09138 79.8713 7.30869 79.9252 7.52295L82.8126 19.0191C82.8664 19.2334 83.0837 19.3634 83.298 19.3096C83.5122 19.2558 83.6423 19.0385 83.5885 18.8242L80.7011 7.32807ZM96.3449 10.4173C96.419 10.2092 96.3103 9.98039 96.1022 9.90632C95.8941 9.83225 95.6653 9.94092 95.5912 10.149L94.7951 12.3859C94.7211 12.594 94.8297 12.8228 95.0378 12.8969C95.246 12.9709 95.4747 12.8623 95.5488 12.6541L96.3449 10.4173ZM61.0202 21.4619C60.8218 21.3646 60.5822 21.4465 60.4849 21.6448C60.3875 21.8431 60.4694 22.0828 60.6678 22.1801L70.7351 27.1202C70.9334 27.2175 71.1731 27.1356 71.2704 26.9373C71.3677 26.7389 71.2858 26.4993 71.0875 26.402L61.0202 21.4619ZM95.2393 14.0657C95.2989 13.8529 95.1747 13.6322 94.962 13.5726C94.7493 13.513 94.5285 13.6372 94.4689 13.8499L93.0371 18.9623C92.9776 19.175 93.1017 19.3958 93.3144 19.4553C93.5272 19.5149 93.7479 19.3908 93.8075 19.178L95.2393 14.0657ZM107.596 20.6211C107.755 20.4681 107.76 20.2149 107.607 20.0555C107.454 19.8962 107.201 19.8911 107.042 20.0441L103.213 23.7217C103.053 23.8747 103.048 24.1279 103.201 24.2873C103.354 24.4466 103.607 24.4517 103.767 24.2987L107.596 20.6211ZM58.8513 40.9201C58.6371 40.9739 58.507 41.1912 58.5608 41.4055C58.6147 41.6197 58.832 41.7498 59.0462 41.696L67.9877 39.4502C68.2019 39.3964 68.332 39.1791 68.2782 38.9648C68.2244 38.7505 68.0071 38.6205 67.7928 38.6743L58.8513 40.9201ZM70.8779 50.2231C71.0455 50.0792 71.0646 49.8266 70.9207 49.6591C70.7767 49.4915 70.5242 49.4723 70.3566 49.6163L67.0058 52.4948C66.8382 52.6388 66.8191 52.8913 66.963 53.0589C67.107 53.2264 67.3595 53.2456 67.5271 53.1016L70.8779 50.2231ZM65.9544 54.8393C66.1105 54.683 66.1102 54.4297 65.9538 54.2737C65.7974 54.1176 65.5441 54.1179 65.3881 54.2743L62.676 56.9924C62.5199 57.1488 62.5202 57.402 62.6766 57.5581C62.833 57.7141 63.0862 57.7138 63.2423 57.5574L65.9544 54.8393ZM150.141 10.5899C150.141 10.369 150.32 10.1899 150.541 10.1899H159.76C159.981 10.1899 160.16 10.369 160.16 10.5899C160.16 10.8108 159.981 10.9899 159.76 10.9899H150.941V32.3208C150.941 32.5417 150.762 32.7208 150.541 32.7208C150.32 32.7208 150.141 32.5417 150.141 32.3208V10.5899ZM144.873 34.9548C144.873 34.7339 145.052 34.5549 145.273 34.5549H159.76C159.981 34.5549 160.16 34.7339 160.16 34.9548C160.16 35.1758 159.981 35.3549 159.76 35.3549H145.673V49.4421C145.673 49.663 145.493 49.8421 145.273 49.8421C145.052 49.8421 144.873 49.663 144.873 49.4421V34.9548ZM102.069 54.0517C102.069 53.8308 102.248 53.6517 102.469 53.6517H159.76C159.981 53.6517 160.16 53.8308 160.16 54.0517C160.16 54.2726 159.981 54.4517 159.76 54.4517H102.869V106.074C102.869 106.295 102.69 106.474 102.469 106.474C102.248 106.474 102.069 106.295 102.069 106.074V54.0517ZM109.971 73.807C109.971 73.5861 110.151 73.407 110.371 73.407H114.981H132.761C132.982 73.407 133.161 73.5861 133.161 73.807V97.5135C133.161 97.7344 132.982 97.9135 132.761 97.9135H110.371C110.151 97.9135 109.971 97.7344 109.971 97.5135V73.807ZM110.771 74.207V97.1135H132.361V74.207H115.381V89.6113C115.381 89.8322 115.202 90.0113 114.981 90.0113C114.76 90.0113 114.581 89.8322 114.581 89.6113V74.207H110.771ZM140.922 73.807C140.922 73.5861 141.101 73.407 141.322 73.407H145.273H159.76C159.981 73.407 160.16 73.5861 160.16 73.807C160.16 74.028 159.981 74.207 159.76 74.207H145.673V89.6113C145.673 89.8322 145.493 90.0113 145.273 90.0113C145.052 90.0113 144.873 89.8322 144.873 89.6113V74.207H141.721V97.1135H159.76C159.981 97.1135 160.16 97.2925 160.16 97.5135C160.16 97.7344 159.981 97.9135 159.76 97.9135H141.322C141.101 97.9135 140.922 97.7344 140.922 97.5135V73.807ZM73.7533 114.635C73.7533 114.414 73.9324 114.235 74.1533 114.235H145.273C145.493 114.235 145.673 114.414 145.673 114.635V140.975C145.673 141.196 145.493 141.375 145.273 141.375C145.052 141.375 144.873 141.196 144.873 140.975V115.035H74.5533V140.975V154.145C74.5533 154.366 74.3742 154.545 74.1533 154.545C73.9324 154.545 73.7533 154.366 73.7533 154.145V140.975V114.635ZM78.1044 117.527C78.3253 117.527 78.5044 117.706 78.5044 117.927V124.771H104.703V118.327H82.0555C81.8345 118.327 81.6554 118.148 81.6554 117.927C81.6554 117.706 81.8345 117.527 82.0555 117.527H105.103C105.324 117.527 105.503 117.706 105.503 117.927V125.171C105.503 125.392 105.324 125.571 105.103 125.571H78.1044C77.8835 125.571 77.7044 125.392 77.7044 125.171V117.927C77.7044 117.706 77.8835 117.527 78.1044 117.527ZM113.264 117.927C113.264 117.706 113.443 117.527 113.664 117.527H136.712C136.933 117.527 137.112 117.706 137.112 117.927C137.112 118.148 136.933 118.327 136.712 118.327H114.064V124.771H140.922V117.927C140.922 117.706 141.101 117.527 141.322 117.527C141.542 117.527 141.721 117.706 141.721 117.927V125.171C141.721 125.392 141.542 125.571 141.322 125.571H113.664C113.443 125.571 113.264 125.392 113.264 125.171V117.927ZM121.166 148.219C121.166 147.998 121.345 147.819 121.566 147.819H159.76C159.981 147.819 160.16 147.998 160.16 148.219C160.16 148.44 159.981 148.619 159.76 148.619H121.966V203.534C121.966 203.755 121.787 203.934 121.566 203.934C121.345 203.934 121.166 203.755 121.166 203.534V148.219ZM42.8033 160.072C42.8033 159.851 42.9823 159.672 43.2033 159.672H113.664C113.885 159.672 114.064 159.851 114.064 160.072V183.059L117.338 193.537C117.35 193.575 117.357 193.616 117.357 193.656V196.949C117.357 197.17 117.177 197.349 116.957 197.349H110.771V208.143C110.771 208.364 110.592 208.543 110.371 208.543H102.469C102.248 208.543 102.069 208.364 102.069 208.143C102.069 207.923 102.248 207.743 102.469 207.743H109.971V197.349H94.5672H66.2512H46.8958V207.743H92.5916C92.8126 207.743 92.9916 207.923 92.9916 208.143C92.9916 208.364 92.8126 208.543 92.5916 208.543H46.4958C46.2749 208.543 46.0958 208.364 46.0958 208.143V197.349H39.2522C39.0313 197.349 38.8522 197.17 38.8522 196.949V193.656C38.8522 193.608 38.8608 193.561 38.8777 193.516L42.8033 183.047V160.072ZM43.4805 183.52L39.8294 193.256H66.5777L68.4033 183.52H43.4805ZM69.2172 183.52L67.3917 193.256H93.3964L90.9623 183.52H69.2172ZM91.7869 183.52L94.221 193.256H116.412L113.37 183.52H91.7869ZM113.264 182.72V160.472H43.6033V182.72H68.8852H91.2746H113.264ZM116.557 194.056H94.3966L94.8951 196.549H110.371H116.557V194.056ZM94.0793 196.549L93.5807 194.056H67.2376L66.7391 196.549H94.0793ZM65.9232 196.549L66.4218 194.056H39.6522V196.549H46.4958H65.9232ZM128.41 162.706C128.41 162.485 128.589 162.306 128.81 162.306H150.541C150.762 162.306 150.941 162.485 150.941 162.706C150.941 162.927 150.762 163.106 150.541 163.106H129.21V196.949C129.21 197.17 129.031 197.349 128.81 197.349C128.589 197.349 128.41 197.17 128.41 196.949V162.706ZM131.444 170.208C131.665 170.208 131.844 170.387 131.844 170.608V185.096C131.844 185.316 131.665 185.496 131.444 185.496C131.223 185.496 131.044 185.316 131.044 185.096V170.608C131.044 170.387 131.223 170.208 131.444 170.208ZM19.0968 208.143C19.0968 207.923 19.2759 207.743 19.4968 207.743H41.8862C42.1072 207.743 42.2862 207.923 42.2862 208.143C42.2862 208.364 42.1072 208.543 41.8862 208.543H19.4968C19.2759 208.543 19.0968 208.364 19.0968 208.143ZM0 213.412C0 213.191 0.179088 213.012 0.400002 213.012H85.348C85.5689 213.012 85.748 213.191 85.748 213.412C85.748 213.632 85.5689 213.812 85.348 213.812H0.400002C0.179088 213.812 0 213.632 0 213.412ZM113.701 61.4937C113.3 61.1883 112.808 61.0274 112.304 61.0372C111.8 61.047 111.314 61.2269 110.925 61.5476C110.537 61.8684 110.268 62.3111 110.162 62.804C110.057 63.2969 110.122 63.8108 110.345 64.2625C110.569 64.7141 110.939 65.0768 111.395 65.2917C111.851 65.5065 112.366 65.561 112.856 65.4461C113.347 65.3312 113.785 65.0538 114.098 64.6589C114.411 64.264 114.581 63.7748 114.581 63.2709H115.381C115.381 63.9553 115.15 64.6197 114.725 65.156C114.299 65.6923 113.705 66.069 113.039 66.225C112.372 66.381 111.673 66.3071 111.054 66.0153C110.434 65.7235 109.932 65.2309 109.628 64.6175C109.325 64.0042 109.237 63.3062 109.38 62.6368C109.523 61.9675 109.888 61.3662 110.416 60.9306C110.944 60.495 111.604 60.2507 112.288 60.2374C112.973 60.2241 113.641 60.4426 114.186 60.8573L113.701 61.4937ZM126.791 61.0372C127.295 61.0274 127.787 61.1883 128.188 61.4937L128.673 60.8573C128.129 60.4426 127.46 60.2241 126.776 60.2374C126.091 60.2507 125.432 60.495 124.904 60.9306C124.376 61.3662 124.01 61.9675 123.867 62.6368C123.724 63.3062 123.812 64.0042 124.116 64.6175C124.419 65.2309 124.922 65.7235 125.541 66.0153C126.16 66.3071 126.86 66.381 127.526 66.225C128.192 66.069 128.787 65.6923 129.212 65.156C129.637 64.6197 129.869 63.9553 129.869 63.2709H129.069C129.069 63.7748 128.898 64.264 128.585 64.6589C128.272 65.0538 127.834 65.3312 127.344 65.4461C126.853 65.561 126.338 65.5065 125.882 65.2917C125.426 65.0768 125.056 64.7141 124.833 64.2625C124.609 63.8108 124.544 63.2969 124.65 62.804C124.755 62.3111 125.024 61.8684 125.413 61.5476C125.801 61.2269 126.287 61.047 126.791 61.0372ZM157.163 61.4937C156.762 61.1883 156.27 61.0274 155.766 61.0372C155.262 61.047 154.776 61.2269 154.387 61.5476C153.999 61.8684 153.73 62.3111 153.624 62.804C153.519 63.2969 153.584 63.8108 153.807 64.2625C154.031 64.7141 154.401 65.0768 154.857 65.2917C155.312 65.5065 155.828 65.561 156.318 65.4461C156.809 65.3312 157.247 65.0538 157.56 64.6589C157.873 64.264 158.043 63.7748 158.043 63.2709H158.843C158.843 63.9553 158.612 64.6197 158.186 65.156C157.761 65.6923 157.167 66.069 156.501 66.225C155.834 66.381 155.135 66.3071 154.516 66.0153C153.896 65.7235 153.394 65.2309 153.09 64.6175C152.787 64.0042 152.699 63.3062 152.842 62.6368C152.985 61.9675 153.35 61.3662 153.878 60.9306C154.406 60.495 155.066 60.2507 155.75 60.2374C156.435 60.2241 157.103 60.4426 157.648 60.8573L157.163 61.4937ZM141.278 61.0372C141.782 61.0274 142.275 61.1883 142.676 61.4937L143.16 60.8573C142.616 60.4426 141.947 60.2241 141.263 60.2374C140.579 60.2507 139.919 60.495 139.391 60.9306C138.863 61.3662 138.498 61.9675 138.355 62.6368C138.212 63.3062 138.299 64.0042 138.603 64.6175C138.907 65.2309 139.409 65.7235 140.028 66.0153C140.647 66.3071 141.347 66.381 142.013 66.225C142.68 66.069 143.274 65.6923 143.699 65.156C144.124 64.6197 144.356 63.9553 144.356 63.2709H143.556C143.556 63.7748 143.385 64.264 143.072 64.6589C142.759 65.0538 142.322 65.3312 141.831 65.4461C141.34 65.561 140.825 65.5065 140.369 65.2917C139.913 65.0768 139.544 64.7141 139.32 64.2625C139.096 63.8108 139.032 63.2969 139.137 62.804C139.242 62.3111 139.511 61.8684 139.9 61.5476C140.289 61.2269 140.775 61.047 141.278 61.0372ZM79.9865 21.7397C83.4713 20.0888 87.3674 19.5083 91.1822 20.0717C94.9969 20.635 98.5589 22.3169 101.418 24.9047C104.277 27.4925 106.304 30.8699 107.243 34.6099L106.467 34.8047C105.567 31.2183 103.622 27.9794 100.881 25.4978C98.1394 23.0162 94.7235 21.4033 91.0653 20.8631C87.4071 20.3228 83.6708 20.8795 80.329 22.4627C76.9871 24.0458 74.1898 26.5844 72.2908 29.7574C70.3917 32.9304 69.4762 36.5953 69.66 40.2886C69.8438 43.9819 71.1187 47.5378 73.3234 50.5066C75.5281 53.4753 78.5637 55.7237 82.0462 56.9672L81.7772 57.7206C78.1456 56.4239 74.9802 54.0793 72.6811 50.9836C70.3821 47.8878 69.0526 44.1797 68.861 40.3284C68.6693 36.4771 69.624 32.6554 71.6043 29.3466C73.5846 26.0378 76.5016 23.3906 79.9865 21.7397Z" fill="white"/>
</svg>
