<svg width="97" height="34" viewBox="0 0 97 34" fill="none" xmlns="http://www.w3.org/2000/svg">
<path d="M15.902 27.3727C15.8484 27.4814 15.7344 27.7125 15.5602 28.066C15.3994 28.4058 15.1849 28.8001 14.9169 29.2487C14.6622 29.6973 14.3607 30.1663 14.0122 30.6557C13.6638 31.1451 13.2751 31.5938 12.8462 32.0016C12.4173 32.4094 11.955 32.7493 11.4591 33.0212C10.9632 33.2795 10.4405 33.4086 9.89098 33.4086C9.11364 33.4086 8.45693 33.1571 7.92083 32.6541C7.39813 32.1511 7.01617 31.519 6.77492 30.7577C6.31924 31.5326 5.77644 32.1511 5.14653 32.6134C4.51661 33.062 3.8867 33.2863 3.25679 33.2863C2.7609 33.2863 2.31192 33.1979 1.90984 33.0212C1.50777 32.8309 1.16601 32.5726 0.88456 32.2463C0.603109 31.9064 0.381969 31.5122 0.22114 31.0636C0.0737133 30.615 0 30.1255 0 29.5954C0 28.535 0.174231 27.6038 0.522694 26.8017C0.88456 25.986 1.34024 25.3063 1.88974 24.7625C2.43924 24.2187 3.04235 23.8109 3.69907 23.539C4.36919 23.2671 5.0125 23.1311 5.62902 23.1311C6.04449 23.1311 6.42646 23.1923 6.77492 23.3147C7.12339 23.4234 7.41824 23.5458 7.65948 23.6817C7.91413 23.8177 8.10846 23.9468 8.24249 24.0692C8.37651 24.1779 8.45022 24.2391 8.46363 24.2527C8.61105 24.4294 8.68477 24.613 8.68477 24.8033C8.68477 25.0072 8.61105 25.1907 8.46363 25.3539C8.3162 25.5034 8.14197 25.5782 7.94093 25.5782C7.72649 25.5782 7.54556 25.5034 7.39813 25.3539C7.37133 25.3267 7.31102 25.2791 7.2172 25.2111C7.12339 25.1295 6.99606 25.048 6.83523 24.9664C6.6744 24.8848 6.48007 24.8169 6.25223 24.7625C6.03779 24.6945 5.78984 24.6605 5.50839 24.6605C5.09292 24.6605 4.65064 24.7557 4.18155 24.946C3.71247 25.1363 3.28359 25.4354 2.89492 25.8433C2.50625 26.2375 2.17789 26.7405 1.90984 27.3523C1.6552 27.9504 1.52788 28.6641 1.52788 29.4934C1.52788 29.7517 1.55468 30.0168 1.60829 30.2887C1.6619 30.547 1.75572 30.7849 1.88974 31.0024C2.02377 31.2199 2.2047 31.3966 2.43254 31.5326C2.66038 31.6685 2.94183 31.7365 3.27689 31.7365C3.51813 31.7365 3.79288 31.6549 4.10114 31.4918C4.4228 31.3287 4.72435 31.0772 5.0058 30.7373C5.30066 30.3974 5.562 29.9692 5.78984 29.4526C6.03109 28.936 6.19862 28.3243 6.29244 27.6174C6.31924 27.427 6.40636 27.2707 6.55378 27.1483C6.70121 27.0124 6.87544 26.9444 7.07648 26.9444C7.26411 26.9444 7.42494 27.0192 7.55896 27.1687C7.70639 27.3183 7.7868 27.4882 7.80021 27.6785C7.81361 27.9368 7.84041 28.3039 7.88062 28.7797C7.92083 29.2419 8.00794 29.7041 8.14197 30.1663C8.2894 30.6285 8.50383 31.0296 8.78529 31.3695C9.06674 31.7093 9.45541 31.8792 9.9513 31.8792C10.273 31.8792 10.5879 31.7909 10.8962 31.6142C11.2178 31.4374 11.5261 31.2063 11.8209 30.9208C12.1292 30.6218 12.4173 30.2887 12.6854 29.9216C12.9668 29.541 13.2215 29.1603 13.4493 28.7797C13.6772 28.399 13.8782 28.032 14.0524 27.6785C14.2267 27.3251 14.3741 27.0192 14.4947 26.7609C14.5617 26.6114 14.6555 26.4958 14.7762 26.4142C14.9102 26.3327 15.0509 26.2919 15.1983 26.2919C15.4262 26.2919 15.6071 26.3802 15.7411 26.557C15.8886 26.7201 15.9623 26.8968 15.9623 27.0872C15.9623 27.1823 15.9422 27.2775 15.902 27.3727Z" fill="white"/>
<path d="M14.5349 29.004C14.5349 27.0464 14.6555 25.0956 14.8968 23.1515C14.9236 22.9612 15.004 22.7981 15.138 22.6621C15.2855 22.5126 15.4731 22.4378 15.7009 22.4378C15.902 22.4378 16.0695 22.5194 16.2035 22.6825C16.3375 22.8321 16.4046 23.0088 16.4046 23.2127C16.4046 23.2943 16.3845 23.539 16.3442 23.9468C16.3174 24.3547 16.2772 24.8441 16.2236 25.415C16.1834 25.9724 16.1432 26.5706 16.103 27.2095C16.0762 27.8349 16.0628 28.4126 16.0628 28.9428C16.0628 29.6633 16.1298 30.2479 16.2638 30.6965C16.4113 31.1315 16.5922 31.4714 16.8066 31.7161C17.0345 31.9608 17.269 32.124 17.5103 32.2055C17.7649 32.2871 18.0061 32.3279 18.234 32.3279C18.6093 32.3279 18.9979 32.1919 19.4 31.92C19.8021 31.6481 20.2108 31.2675 20.6263 30.7781C21.0552 30.2887 21.4841 29.7041 21.913 29.0244C22.3418 28.3311 22.764 27.563 23.1795 26.7201C23.2465 26.5842 23.3403 26.4822 23.4609 26.4142C23.5816 26.3327 23.7156 26.2919 23.863 26.2919C24.0774 26.2919 24.2517 26.3735 24.3857 26.5366C24.5331 26.6997 24.6068 26.8764 24.6068 27.0668C24.6068 27.2027 24.58 27.3183 24.5264 27.4134C24.3656 27.7261 24.1646 28.1068 23.9233 28.5554C23.6821 29.004 23.4073 29.4662 23.0991 29.942C22.7908 30.4178 22.4491 30.8936 22.0738 31.3695C21.7119 31.8317 21.3232 32.2531 20.9078 32.6337C20.4923 33.0008 20.0567 33.2999 19.601 33.531C19.1454 33.7621 18.683 33.8776 18.2139 33.8776C17.6108 33.8776 17.0814 33.7485 16.6257 33.4902C16.17 33.2319 15.7813 32.8852 15.4597 32.4502C15.1514 32.0152 14.9169 31.5054 14.7561 30.9208C14.6086 30.3227 14.5349 29.6837 14.5349 29.004Z" fill="white"/>
<path d="M25.2703 24.6809C25.2166 25.048 25.1496 25.3946 25.0692 25.7209C24.9888 26.0336 24.9084 26.3123 24.828 26.557C24.761 26.7881 24.7007 26.9784 24.647 27.1279C24.5934 27.2775 24.5599 27.3591 24.5465 27.3727C24.4125 27.6853 24.178 27.8417 23.8429 27.8417C23.6553 27.8417 23.481 27.7737 23.3202 27.6377C23.1594 27.4882 23.079 27.3047 23.079 27.0872C23.079 27.0056 23.0924 26.9444 23.1192 26.9036C23.146 26.8629 23.1862 26.7813 23.2398 26.6589C23.2934 26.5366 23.3604 26.3327 23.4408 26.0472C23.5212 25.7617 23.6218 25.3199 23.7424 24.7217C23.5145 24.7217 23.28 24.7149 23.0388 24.7013C22.7975 24.6877 22.5764 24.6401 22.3753 24.5586C22.1609 24.477 21.9867 24.3479 21.8526 24.1711C21.7186 23.9944 21.6516 23.7497 21.6516 23.437C21.6516 23.2059 21.7186 22.8932 21.8526 22.499C21.9733 22.1048 22.1408 21.7173 22.3552 21.3367C22.5697 20.956 22.8109 20.6297 23.079 20.3579C23.347 20.0724 23.6151 19.9296 23.8831 19.9296C24.1914 19.9296 24.4393 20.0452 24.6269 20.2763C24.828 20.5074 24.9821 20.7929 25.0893 21.1327C25.1965 21.459 25.2703 21.8057 25.3105 22.1727C25.3641 22.5398 25.3909 22.8593 25.3909 23.1311C25.6187 23.1311 25.8399 23.1311 26.0543 23.1311C26.2821 23.1176 26.4966 23.1108 26.6976 23.1108C27.4616 23.1108 28.0446 23.2807 28.4466 23.6206C28.8487 23.9604 29.0497 24.5178 29.0497 25.2927C29.0497 25.6054 29.0296 25.9316 28.9894 26.2715C28.9492 26.6114 28.9023 26.9648 28.8487 27.3319C28.7951 27.6853 28.7482 28.0388 28.708 28.3922C28.6678 28.7457 28.6477 29.0924 28.6477 29.4322C28.6477 29.9216 28.7147 30.3295 28.8487 30.6557C28.9827 30.9684 29.1503 31.2199 29.3513 31.4102C29.5523 31.6006 29.7668 31.7365 29.9946 31.8181C30.2225 31.886 30.4302 31.92 30.6178 31.92C31.1941 31.92 31.7369 31.7297 32.2462 31.3491C32.7555 30.9684 33.2246 30.513 33.6535 29.9828C34.0823 29.439 34.4643 28.8681 34.7994 28.2699C35.1478 27.6717 35.436 27.1483 35.6638 26.6997C35.7308 26.5774 35.8247 26.4822 35.9453 26.4142C36.0659 26.3463 36.1932 26.3123 36.3273 26.3123C36.5685 26.3123 36.7561 26.3938 36.8902 26.557C37.0242 26.7065 37.0912 26.8764 37.0912 27.0668C37.0912 27.2027 37.0644 27.3251 37.0108 27.4338C36.7025 27.9912 36.3407 28.6234 35.9252 29.3303C35.5231 30.0236 35.0607 30.6761 34.538 31.2879C34.0153 31.8996 33.4256 32.4162 32.7689 32.8377C32.1256 33.2591 31.4153 33.4698 30.6379 33.4698C30.1554 33.4698 29.6998 33.3747 29.2709 33.1843C28.842 33.0076 28.4667 32.7493 28.1451 32.4094C27.8368 32.056 27.5889 31.6277 27.4012 31.1248C27.2136 30.6082 27.1198 30.0304 27.1198 29.3914C27.1198 28.7117 27.1868 28.0388 27.3208 27.3727C27.4549 26.6929 27.5219 26.0472 27.5219 25.4354C27.5219 25.1771 27.4616 24.9868 27.3409 24.8645C27.2337 24.7285 26.9858 24.6605 26.5971 24.6605C26.4095 24.6605 26.2017 24.6605 25.9739 24.6605C25.7594 24.6605 25.5249 24.6673 25.2703 24.6809ZM23.9233 23.1719C23.9233 23.0768 23.9166 22.9544 23.9032 22.8049C23.9032 22.6417 23.8898 22.4854 23.863 22.3359C23.8496 22.1863 23.8228 22.0572 23.7826 21.9484C23.7558 21.8397 23.7223 21.7853 23.6821 21.7853C23.6419 21.7853 23.5883 21.8397 23.5212 21.9484C23.4676 22.0436 23.4073 22.1659 23.3403 22.3155C23.2733 22.4514 23.213 22.601 23.1594 22.7641C23.1058 22.9272 23.0656 23.0632 23.0388 23.1719H23.9233Z" fill="white"/>
<path d="M43.464 27.1279C44.1208 30.2683 45.0723 31.8385 46.3188 31.8385C46.8012 31.8385 47.2636 31.6617 47.7059 31.3083C48.1482 30.9412 48.557 30.4994 48.9322 29.9828C49.3209 29.4526 49.6627 28.8952 49.9575 28.3107C50.2524 27.7261 50.4936 27.2163 50.6812 26.7813C50.8153 26.455 51.0498 26.2919 51.3849 26.2919C51.5993 26.2919 51.7802 26.3735 51.9277 26.5366C52.0751 26.6997 52.1488 26.8764 52.1488 27.0668C52.1488 27.1755 52.1287 27.2707 52.0885 27.3523C51.9947 27.5834 51.854 27.896 51.6663 28.2903C51.4921 28.6709 51.271 29.0856 51.0029 29.5342C50.7483 29.9692 50.4601 30.4178 50.1384 30.88C49.8168 31.3423 49.4616 31.7569 49.073 32.124C48.6843 32.491 48.2688 32.7969 47.8265 33.0416C47.3977 33.2727 46.942 33.3882 46.4595 33.3882C45.5615 33.3882 44.7909 33.0756 44.1476 32.4502C43.5042 31.8113 42.948 30.7645 42.479 29.3099C41.8356 30.6965 41.1856 31.7025 40.5289 32.3279C39.8722 32.9532 39.1619 33.2659 38.3979 33.2659C37.9959 33.2659 37.6072 33.1979 37.2319 33.062C36.8567 32.9396 36.5283 32.7289 36.2468 32.4298C35.9654 32.1307 35.7375 31.7501 35.5633 31.2879C35.3891 30.8121 35.302 30.2343 35.302 29.5546C35.302 28.6166 35.4628 27.7533 35.7845 26.9648C36.1061 26.1763 36.5216 25.5034 37.0309 24.946C37.5402 24.3751 38.1031 23.9332 38.7196 23.6206C39.3495 23.3079 39.9727 23.1515 40.5892 23.1515C40.7903 23.1515 40.9645 23.2263 41.1119 23.3758C41.2593 23.5118 41.3331 23.6885 41.3331 23.906C41.3331 24.0964 41.2727 24.2663 41.1521 24.4158C41.0315 24.5654 40.8707 24.6537 40.6696 24.6809C40.2676 24.7353 39.8387 24.8645 39.383 25.0684C38.9273 25.2723 38.5051 25.5714 38.1165 25.9656C37.7412 26.3463 37.4263 26.8357 37.1716 27.4338C36.9304 28.032 36.8097 28.7457 36.8097 29.575C36.8097 30.2547 36.9438 30.7849 37.2118 31.1655C37.4933 31.5462 37.8953 31.7365 38.418 31.7365C38.6325 31.7365 38.8603 31.6821 39.1016 31.5734C39.3428 31.451 39.5974 31.2199 39.8655 30.88C40.1469 30.5402 40.4485 30.0576 40.7702 29.4322C41.1052 28.8069 41.4738 27.9844 41.8759 26.9648C41.648 25.7685 41.4403 24.3886 41.2526 22.8253C41.065 21.2619 40.9712 19.515 40.9712 17.5846C40.9712 16.7417 40.998 15.8649 41.0516 14.954C41.1052 14.0296 41.1923 13.1323 41.313 12.2623C41.4336 11.3786 41.5944 10.5426 41.7954 9.7541C41.9965 8.96561 42.2377 8.27229 42.5192 7.67413C42.814 7.07597 43.1558 6.60696 43.5445 6.26709C43.9331 5.91363 44.3754 5.7369 44.8713 5.7369C45.3136 5.7369 45.6888 5.85926 45.9971 6.10396C46.3054 6.34866 46.5533 6.68852 46.7409 7.12355C46.942 7.55858 47.0894 8.08197 47.1832 8.69372C47.277 9.30548 47.3239 9.97841 47.3239 10.7125C47.3239 12.2895 47.1899 13.8665 46.9219 15.4434C46.6538 17.0204 46.3188 18.5294 45.9167 19.9704C45.528 21.4114 45.1125 22.7437 44.6703 23.9672C44.228 25.1907 43.8259 26.2443 43.464 27.1279ZM45.8162 10.6921C45.8162 10.3523 45.8028 9.98521 45.776 9.59096C45.7626 9.19672 45.7156 8.82967 45.6352 8.4898C45.5682 8.13635 45.4744 7.84406 45.3538 7.61295C45.2332 7.38185 45.0723 7.26629 44.8713 7.26629C44.5362 7.26629 44.2213 7.56537 43.9264 8.16353C43.645 8.7617 43.397 9.55018 43.1826 10.529C42.9682 11.4942 42.7939 12.5954 42.6599 13.8325C42.5393 15.056 42.479 16.2931 42.479 17.5438C42.479 18.7401 42.5259 19.9364 42.6197 21.1327C42.7135 22.3291 42.8207 23.3962 42.9413 24.3343C43.33 23.2875 43.6986 22.2135 44.047 21.1124C44.3955 19.9976 44.6971 18.8625 44.9517 17.7069C45.2198 16.5514 45.4275 15.389 45.5749 14.2199C45.7358 13.0372 45.8162 11.8613 45.8162 10.6921Z" fill="white"/>
<path d="M50.7215 29.004C50.7215 27.0464 50.8421 25.0956 51.0833 23.1515C51.1101 22.9612 51.1905 22.7981 51.3246 22.6621C51.472 22.5126 51.6596 22.4378 51.8875 22.4378C52.0885 22.4378 52.256 22.5194 52.3901 22.6825C52.5241 22.8321 52.5911 23.0088 52.5911 23.2127C52.5911 23.2943 52.571 23.539 52.5308 23.9468C52.504 24.3547 52.4638 24.8441 52.4102 25.415C52.3699 25.9724 52.3297 26.5706 52.2895 27.2095C52.2627 27.8349 52.2493 28.4126 52.2493 28.9428C52.2493 29.6633 52.3163 30.2479 52.4504 30.6965C52.5978 31.1315 52.7787 31.4714 52.9932 31.7161C53.221 31.9608 53.4555 32.124 53.6968 32.2055C53.9514 32.2871 54.1927 32.3279 54.4205 32.3279C54.7958 32.3279 55.1845 32.1919 55.5865 31.92C55.9886 31.6481 56.3974 31.2675 56.8129 30.7781C57.2417 30.2887 57.6706 29.7041 58.0995 29.0244C58.5284 28.3311 58.9505 27.563 59.366 26.7201C59.433 26.5842 59.5268 26.4822 59.6475 26.4142C59.7681 26.3327 59.9021 26.2919 60.0495 26.2919C60.264 26.2919 60.4382 26.3735 60.5722 26.5366C60.7197 26.6997 60.7934 26.8764 60.7934 27.0668C60.7934 27.2027 60.7666 27.3183 60.713 27.4134C60.5521 27.7261 60.3511 28.1068 60.1098 28.5554C59.8686 29.004 59.5939 29.4662 59.2856 29.942C58.9773 30.4178 58.6356 30.8936 58.2603 31.3695C57.8984 31.8317 57.5098 32.2531 57.0943 32.6337C56.6788 33.0008 56.2432 33.2999 55.7876 33.531C55.3319 33.7621 54.8695 33.8776 54.4004 33.8776C53.7973 33.8776 53.2679 33.7485 52.8122 33.4902C52.3565 33.2319 51.9679 32.8852 51.6462 32.4502C51.338 32.0152 51.1034 31.5054 50.9426 30.9208C50.7952 30.3227 50.7215 29.6837 50.7215 29.004Z" fill="white"/>
<path d="M76.2933 27.4134C76.2531 27.495 76.1659 27.6649 76.0319 27.9232C75.8979 28.1679 75.7237 28.4602 75.5092 28.8001C75.2948 29.1263 75.0401 29.4798 74.7453 29.8605C74.4504 30.2275 74.1288 30.5674 73.7803 30.88C73.4318 31.1927 73.0566 31.451 72.6545 31.6549C72.2524 31.8589 71.837 31.9608 71.4081 31.9608C70.7112 31.9608 70.1215 31.8385 69.639 31.5938C69.1565 31.3355 68.7611 31.05 68.4529 30.7373C68.2384 31.2131 67.9771 31.6481 67.6688 32.0424C67.3606 32.4366 67.0188 32.7765 66.6435 33.062C66.2683 33.3611 65.8662 33.5922 65.4373 33.7553C65.0218 33.9184 64.593 34 64.1507 34C63.3331 34 62.6362 33.7553 62.0599 33.2659C61.4836 32.7765 61.0011 32.124 60.6124 31.3083C60.2372 30.479 59.9423 29.5206 59.7279 28.433C59.5134 27.3455 59.3459 26.2035 59.2253 25.0072C59.1181 23.8109 59.0511 22.601 59.0242 21.3774C58.9974 20.1539 58.984 18.9916 58.984 17.8904C58.984 15.7833 59.0444 13.9616 59.165 12.4254C59.2856 10.8756 59.4464 9.56377 59.6475 8.4898C59.8619 7.40224 60.1031 6.52539 60.3712 5.85926C60.6526 5.17953 60.9475 4.65614 61.2558 4.28908C61.564 3.90844 61.879 3.65014 62.2006 3.51419C62.5223 3.37825 62.8372 3.31028 63.1455 3.31028C63.6414 3.31028 64.077 3.45982 64.4522 3.7589C64.8409 4.05798 65.1626 4.47941 65.4172 5.02319C65.6853 5.55338 65.8863 6.19912 66.0203 6.96042C66.1543 7.72171 66.2213 8.55778 66.2213 9.46861C66.2213 10.9232 66.0672 12.4254 65.759 13.9752C65.4507 15.525 65.0486 17.0748 64.5527 18.6246C64.0703 20.1607 63.5275 21.6765 62.9244 23.1719C62.3212 24.6537 61.7248 26.0608 61.1351 27.393C61.2155 28.0592 61.3362 28.6981 61.497 29.3099C61.6578 29.908 61.8656 30.445 62.1202 30.9208C62.3749 31.383 62.6764 31.7569 63.0249 32.0424C63.3733 32.3143 63.7754 32.4502 64.2311 32.4502C64.6868 32.4502 65.1156 32.3211 65.5177 32.0628C65.9198 31.7909 66.2683 31.4442 66.5631 31.0228C66.858 30.5878 67.0858 30.0984 67.2466 29.5546C67.4209 29.0108 67.508 28.4534 67.508 27.8824C67.508 27.5018 67.4678 27.1212 67.3874 26.7405C67.3203 26.3463 67.2064 25.9996 67.0456 25.7005C66.8982 25.3878 66.7105 25.1363 66.4827 24.946C66.2549 24.7557 65.9801 24.6605 65.6584 24.6605C65.4172 24.6605 65.2296 24.7149 65.0955 24.8237C64.9615 24.9188 64.861 25.0344 64.794 25.1703C64.727 25.2927 64.6868 25.415 64.6734 25.5374C64.66 25.6597 64.6533 25.7413 64.6533 25.7821C64.6533 25.9724 64.6935 26.1627 64.7739 26.3531C64.8543 26.5434 65.0084 26.7133 65.2363 26.8629C65.4641 27.026 65.578 27.2503 65.578 27.5358C65.578 27.7669 65.4976 27.9504 65.3368 28.0864C65.1894 28.2223 65.0218 28.2903 64.8342 28.2903C64.5661 28.2903 64.3249 28.2087 64.1105 28.0456C63.9094 27.8824 63.7352 27.6785 63.5878 27.4338C63.4403 27.1755 63.3264 26.9036 63.246 26.6182C63.1656 26.3327 63.1254 26.0676 63.1254 25.8229C63.1254 25.4286 63.1924 25.0684 63.3264 24.7421C63.4605 24.4022 63.6414 24.1168 63.8692 23.8856C64.1105 23.6409 64.3785 23.4574 64.6734 23.3351C64.9816 23.1991 65.3033 23.1311 65.6383 23.1311C66.2146 23.1311 66.7105 23.2671 67.126 23.539C67.5549 23.8109 67.9101 24.1711 68.1915 24.6198C68.473 25.0684 68.6807 25.5782 68.8147 26.1491C68.9487 26.7201 69.0158 27.2979 69.0158 27.8824C69.0158 28.2223 68.9956 28.5554 68.9554 28.8816C69.0091 28.9904 69.0962 29.1331 69.2168 29.3099C69.3374 29.4866 69.4982 29.6565 69.6993 29.8197C69.9003 29.9828 70.1416 30.1255 70.423 30.2479C70.7045 30.3703 71.0328 30.4314 71.4081 30.4314C71.7297 30.4314 72.0581 30.3091 72.3932 30.0644C72.7416 29.8061 73.07 29.4934 73.3782 29.1263C73.6999 28.7457 73.9948 28.3447 74.2628 27.9232C74.5308 27.4882 74.752 27.0872 74.9262 26.7201C74.9932 26.5842 75.087 26.4822 75.2077 26.4142C75.3283 26.3327 75.4623 26.2919 75.6097 26.2919C75.8376 26.2919 76.0185 26.3735 76.1525 26.5366C76.3 26.6997 76.3737 26.8832 76.3737 27.0872C76.3737 27.1687 76.3469 27.2775 76.2933 27.4134ZM60.7532 24.7829C61.2088 23.6409 61.6712 22.4446 62.1403 21.1939C62.6094 19.9296 63.0316 18.6449 63.4068 17.3399C63.7821 16.0348 64.0904 14.7161 64.3316 13.3838C64.5729 12.0516 64.6935 10.7397 64.6935 9.44822C64.6935 8.95882 64.6667 8.44902 64.6131 7.91883C64.5729 7.37505 64.4924 6.87885 64.3718 6.43023C64.2512 5.98161 64.0837 5.60776 63.8692 5.30868C63.6682 5.0096 63.4068 4.86006 63.0852 4.86006C62.978 4.86006 62.8372 4.93483 62.663 5.08437C62.5022 5.22031 62.3279 5.47181 62.1403 5.83886C61.9527 6.19232 61.765 6.68852 61.5774 7.32747C61.3898 7.96641 61.2155 8.78209 61.0547 9.77449C60.9073 10.7533 60.78 11.936 60.6727 13.3227C60.5789 14.7093 60.532 16.3407 60.532 18.2167C60.532 18.8421 60.5387 19.481 60.5521 20.1335C60.5655 20.7725 60.5789 21.3842 60.5923 21.9688C60.6191 22.5534 60.6459 23.0904 60.6727 23.5798C60.6996 24.0692 60.7264 24.4702 60.7532 24.7829Z" fill="white"/>
<path d="M86.3853 27.4134C86.2379 27.7261 86.0502 28.1 85.8224 28.535C85.6079 28.9564 85.36 29.3982 85.0786 29.8605C84.7971 30.3227 84.4821 30.7849 84.1337 31.2471C83.7852 31.6957 83.4032 32.1036 82.9878 32.4706C82.5857 32.8241 82.1501 33.1096 81.681 33.3271C81.2254 33.5582 80.7362 33.6737 80.2135 33.6737C79.4093 33.6737 78.7191 33.4222 78.1428 32.9192C77.5665 32.4162 77.0773 31.7569 76.6752 30.9412C76.2732 30.1255 75.9448 29.2011 75.6902 28.1679C75.4489 27.1212 75.2613 26.0608 75.1273 24.9868C74.9932 23.8992 74.8994 22.8457 74.8458 21.8261C74.8056 20.8065 74.7855 19.9024 74.7855 19.114C74.7855 17.972 74.819 16.7893 74.886 15.5658C74.9664 14.3423 75.087 13.1459 75.2479 11.9768C75.4087 10.8077 75.6097 9.69972 75.851 8.65294C76.1056 7.60616 76.4005 6.68852 76.7355 5.90004C77.084 5.11155 77.4794 4.48621 77.9217 4.02399C78.3639 3.56177 78.8665 3.33067 79.4294 3.33067C79.8717 3.33067 80.2671 3.43942 80.6155 3.65694C80.9774 3.86086 81.279 4.20072 81.5202 4.67653C81.7615 5.15234 81.9491 5.77089 82.0831 6.53219C82.2171 7.29348 82.2841 8.22471 82.2841 9.32587C82.2841 10.6853 82.1434 12.0924 81.862 13.547C81.5805 14.988 81.1986 16.4426 80.7161 17.9108C80.2336 19.379 79.664 20.8473 79.0073 22.3155C78.3505 23.7701 77.6469 25.1907 76.8964 26.5774C77.2314 28.3039 77.6804 29.6633 78.2433 30.6557C78.8062 31.6345 79.483 32.124 80.2738 32.124C80.8099 32.124 81.3259 31.9132 81.8218 31.4918C82.3177 31.0568 82.7733 30.547 83.1888 29.9624C83.6043 29.3778 83.9662 28.7865 84.2744 28.1883C84.5961 27.5766 84.844 27.0872 85.0182 26.7201C85.0853 26.5842 85.1791 26.4822 85.2997 26.4142C85.4203 26.3327 85.5543 26.2919 85.7018 26.2919C85.9296 26.2919 86.1105 26.3735 86.2446 26.5366C86.392 26.6997 86.4657 26.8832 86.4657 27.0872C86.4657 27.1687 86.4389 27.2775 86.3853 27.4134ZM76.3134 19.2159C76.3134 20.086 76.3335 20.922 76.3737 21.7241C76.4139 22.5262 76.4675 23.2943 76.5345 24.0284C77.0974 22.9272 77.6335 21.7581 78.1428 20.521C78.6521 19.2703 79.1011 18.0128 79.4897 16.7485C79.8784 15.4706 80.1867 14.2063 80.4145 12.9556C80.6558 11.6913 80.7764 10.4882 80.7764 9.34626C80.7764 7.7421 80.6491 6.59336 80.3944 5.90004C80.1398 5.20672 79.798 4.86006 79.3691 4.86006C79.0877 4.86006 78.8129 5.05718 78.5449 5.45142C78.2902 5.84566 78.049 6.38265 77.8211 7.06238C77.5933 7.7421 77.3856 8.54418 77.1979 9.46861C77.0103 10.393 76.8495 11.3854 76.7154 12.4458C76.5948 13.5062 76.4943 14.6142 76.4139 15.7697C76.3469 16.9252 76.3134 18.074 76.3134 19.2159Z" fill="white"/>
<path d="M87.4508 30.8189C87.7322 31.2131 88.0941 31.5326 88.5364 31.7773C88.9787 32.0084 89.5215 32.124 90.1648 32.124C90.8215 32.124 91.4179 31.9676 91.954 31.6549C92.4901 31.3287 92.9793 30.9072 93.4216 30.3906C93.8638 29.8741 94.2592 29.2963 94.6077 28.6573C94.9561 28.0184 95.2711 27.3794 95.5525 26.7405C95.6196 26.591 95.7134 26.4822 95.834 26.4142C95.9546 26.3327 96.0886 26.2919 96.2361 26.2919C96.4639 26.2919 96.6448 26.3735 96.7789 26.5366C96.9263 26.6997 97 26.8764 97 27.0668C97 27.1347 96.9933 27.1959 96.9799 27.2503C96.9665 27.2911 96.9464 27.3387 96.9196 27.393C95.9948 29.4594 94.9829 31.016 93.8839 32.0628C92.7983 33.1096 91.5653 33.6465 90.1849 33.6737C89.3003 33.6737 88.5364 33.497 87.8931 33.1435C87.2497 32.8037 86.7203 32.3619 86.3049 31.8181C85.8894 31.2607 85.5811 30.6353 85.3801 29.942C85.1791 29.2487 85.0786 28.5554 85.0786 27.8621C85.0786 27.1687 85.159 26.5298 85.3198 25.9452C85.494 25.3607 85.7353 24.8509 86.0435 24.4158C86.3652 23.9808 86.7405 23.6409 87.1693 23.3962C87.6116 23.1515 88.0941 23.0292 88.6168 23.0292C88.925 23.0292 89.2266 23.0972 89.5215 23.2331C89.8297 23.3555 90.1045 23.539 90.3457 23.7837C90.5869 24.0148 90.7813 24.3003 90.9287 24.6401C91.0761 24.98 91.1498 25.3675 91.1498 25.8025C91.1498 26.3599 91.056 26.8832 90.8684 27.3727C90.6808 27.8621 90.4194 28.3175 90.0844 28.7389C89.7627 29.1603 89.374 29.5478 88.9183 29.9012C88.4627 30.2547 87.9735 30.5606 87.4508 30.8189ZM86.8477 29.4934C87.2631 29.3167 87.6384 29.0924 87.9735 28.8205C88.3219 28.5486 88.6168 28.2495 88.858 27.9232C89.0993 27.597 89.2869 27.2571 89.4209 26.9036C89.555 26.5366 89.622 26.1695 89.622 25.8025C89.622 25.3946 89.5215 25.0888 89.3204 24.8848C89.1194 24.6673 88.8848 24.5586 88.6168 24.5586C88.2549 24.5586 87.9467 24.6605 87.692 24.8645C87.4374 25.0684 87.2296 25.3335 87.0688 25.6597C86.908 25.986 86.7874 26.3531 86.7069 26.7609C86.6399 27.1551 86.6064 27.5494 86.6064 27.9436C86.6064 28.1883 86.6265 28.4466 86.6667 28.7185C86.7203 28.9904 86.7807 29.2487 86.8477 29.4934Z" fill="white"/>
<path d="M33.0148 22.6214L33.7804 22.4093L27.6276 1.70224C26.9383 0.936174 25.4024 1.36404 25.3306 2.33828L33.0148 22.6214Z" fill="white"/>
<path d="M34.8351 22.1907L35.6236 22.0648L32.2411 0.51496C31.6573 -0.335063 30.0753 -0.0798704 29.8756 0.892722L34.8351 22.1907Z" fill="white"/>
</svg>
