<svg width="207" height="90" viewBox="0 0 207 90" fill="none" xmlns="http://www.w3.org/2000/svg">
<path d="M67.1442 61.616L69.1049 61.0386L53.3486 4.63657C51.5833 2.54995 47.6501 3.71538 47.4663 6.36901L67.1442 61.616Z" fill="white"/>
<path d="M71.8058 60.443L73.825 60.1L65.163 1.40265C63.668 -0.912643 59.6168 -0.217553 59.1053 2.43159L71.8058 60.443Z" fill="white"/>
<path d="M33.9351 76.0315C33.8207 76.2607 33.5776 76.7478 33.2058 77.4928C32.8626 78.2092 32.405 79.0401 31.833 79.9857C31.2895 80.9312 30.646 81.9198 29.9024 82.9513C29.1588 83.9828 28.3293 84.9284 27.4141 85.788C26.4989 86.6476 25.5121 87.3639 24.4539 87.937C23.3956 88.4814 22.2802 88.7536 21.1076 88.7536C19.4487 88.7536 18.0473 88.2235 16.9032 87.1633C15.7878 86.1031 14.9726 84.7708 14.4578 83.1662C13.4854 84.7994 12.327 86.1031 10.9828 87.0774C9.63855 88.0229 8.2943 88.4957 6.95005 88.4957C5.89181 88.4957 4.93368 88.3094 4.07565 87.937C3.21762 87.5358 2.48829 86.9914 1.88767 86.3037C1.28705 85.5874 0.81513 84.7564 0.471917 83.8109C0.157306 82.8653 0 81.8338 0 80.7163C0 78.4814 0.371814 76.5186 1.11544 74.8281C1.88767 73.1089 2.8601 71.6762 4.03275 70.5301C5.20539 69.3839 6.49244 68.5244 7.89389 67.9513C9.32394 67.3782 10.6968 67.0917 12.0124 67.0917C12.8991 67.0917 13.7142 67.2206 14.4578 67.4785C15.2015 67.7077 15.8307 67.9656 16.3455 68.2521C16.8889 68.5387 17.3036 68.8109 17.5896 69.0688C17.8756 69.298 18.033 69.4269 18.0616 69.4556C18.3762 69.8281 18.5335 70.2149 18.5335 70.616C18.5335 71.0458 18.3762 71.4327 18.0616 71.7765C17.7469 72.0917 17.3751 72.2493 16.9461 72.2493C16.4885 72.2493 16.1024 72.0917 15.7878 71.7765C15.7306 71.7192 15.6019 71.6189 15.4017 71.4756C15.2015 71.3037 14.9297 71.1318 14.5865 70.9599C14.2433 70.788 13.8286 70.6447 13.3424 70.5301C12.8848 70.3868 12.3556 70.3152 11.755 70.3152C10.8684 70.3152 9.92456 70.5158 8.92352 70.9169C7.92249 71.318 7.00725 71.9484 6.17782 72.808C5.34839 73.639 4.64767 74.6991 4.07565 75.9885C3.53223 77.2493 3.26052 78.7536 3.26052 80.5014C3.26052 81.0458 3.31772 81.6046 3.43212 82.1777C3.54653 82.7221 3.74674 83.2235 4.03275 83.6819C4.31876 84.1404 4.70487 84.5129 5.19109 84.7994C5.67731 85.086 6.27793 85.2292 6.99295 85.2292C7.50777 85.2292 8.09409 85.0573 8.75192 84.7135C9.43834 84.3696 10.0819 83.8395 10.6825 83.1232C11.3117 82.4069 11.8694 81.5043 12.3556 80.4155C12.8705 79.3266 13.228 78.0372 13.4282 76.5473C13.4854 76.1461 13.6713 75.8166 13.9859 75.5587C14.3005 75.2722 14.6723 75.1289 15.1013 75.1289C15.5018 75.1289 15.845 75.2865 16.131 75.6017C16.4456 75.9169 16.6172 76.2751 16.6458 76.6762C16.6744 77.2206 16.7316 77.9943 16.8174 78.9971C16.9032 79.9713 17.0891 80.9456 17.3751 81.9198C17.6897 82.894 18.1474 83.7393 18.748 84.4556C19.3486 85.1719 20.178 85.5301 21.2363 85.5301C21.9227 85.5301 22.5948 85.3438 23.2526 84.9713C23.9391 84.5988 24.5969 84.1117 25.2261 83.51C25.8839 82.8797 26.4989 82.1777 27.0709 81.404C27.6715 80.6017 28.2149 79.7994 28.7011 78.9971C29.1874 78.1948 29.6164 77.4212 29.9882 76.6762C30.36 75.9312 30.6746 75.2865 30.932 74.7421C31.075 74.4269 31.2752 74.1834 31.5326 74.0115C31.8187 73.8395 32.119 73.7536 32.4336 73.7536C32.9198 73.7536 33.3059 73.9398 33.5919 74.3123C33.9065 74.6562 34.0638 75.0286 34.0638 75.4298C34.0638 75.6304 34.0209 75.8309 33.9351 76.0315Z" fill="white"/>
<path d="M31.0178 79.4699C31.0178 75.3438 31.2752 71.2321 31.7901 67.1347C31.8473 66.7335 32.0189 66.3897 32.3049 66.1031C32.6195 65.788 33.0199 65.6304 33.5061 65.6304C33.9351 65.6304 34.2926 65.8023 34.5787 66.1461C34.8647 66.4613 35.0077 66.8338 35.0077 67.2636C35.0077 67.4355 34.9648 67.9513 34.879 68.8109C34.8218 69.6705 34.736 70.702 34.6216 71.9054C34.5358 73.0802 34.45 74.341 34.3641 75.6877C34.3069 77.0057 34.2783 78.2235 34.2783 79.341C34.2783 80.8596 34.4213 82.0917 34.7074 83.0372C35.022 83.9541 35.4081 84.6705 35.8657 85.1862C36.3519 85.702 36.8524 86.0458 37.3673 86.2178C37.9107 86.3897 38.4255 86.4756 38.9117 86.4756C39.7125 86.4756 40.542 86.1891 41.4 85.616C42.258 85.043 43.1304 84.2407 44.017 83.2092C44.9322 82.1777 45.8475 80.9456 46.7627 79.5129C47.6779 78.0516 48.5789 76.4327 49.4655 74.6562C49.6085 74.3696 49.8087 74.1547 50.0661 74.0115C50.3235 73.8395 50.6095 73.7536 50.9241 73.7536C51.3818 73.7536 51.7536 73.9255 52.0396 74.2693C52.3542 74.6132 52.5115 74.9857 52.5115 75.3868C52.5115 75.6733 52.4543 75.9169 52.3399 76.1175C51.9967 76.7765 51.5677 77.5788 51.0529 78.5244C50.538 79.4699 49.9517 80.4441 49.2939 81.447C48.6361 82.4499 47.9067 83.4527 47.1059 84.4556C46.3337 85.4298 45.5042 86.318 44.6176 87.1203C43.731 87.894 42.8015 88.5244 41.829 89.0115C40.8566 89.4986 39.8698 89.7421 38.8688 89.7421C37.5818 89.7421 36.452 89.4699 35.4796 88.9255C34.5072 88.3811 33.6777 87.6504 32.9913 86.7335C32.3335 85.8166 31.833 84.7421 31.4897 83.51C31.1751 82.2493 31.0178 80.9026 31.0178 79.4699Z" fill="white"/>
<path d="M53.9273 70.3582C53.8129 71.1318 53.6698 71.8625 53.4982 72.5501C53.3266 73.2092 53.155 73.7966 52.9834 74.3123C52.8404 74.7994 52.7117 75.2006 52.5973 75.5158C52.4829 75.8309 52.4114 76.0029 52.3828 76.0315C52.0968 76.6905 51.5963 77.0201 50.8812 77.0201C50.4808 77.0201 50.109 76.8768 49.7658 76.5903C49.4226 76.2751 49.251 75.8883 49.251 75.4298C49.251 75.2579 49.2796 75.1289 49.3368 75.043C49.394 74.957 49.4798 74.7851 49.5942 74.5272C49.7086 74.2693 49.8516 73.8395 50.0232 73.2378C50.1948 72.6361 50.4093 71.7049 50.6667 70.4441C50.1805 70.4441 49.68 70.4298 49.1652 70.4011C48.6504 70.3725 48.1784 70.2722 47.7494 70.1003C47.2918 69.9284 46.92 69.6562 46.634 69.2837C46.348 68.9112 46.205 68.3954 46.205 67.7364C46.205 67.2493 46.348 66.5903 46.634 65.7593C46.8914 64.9284 47.2489 64.1117 47.7065 63.3095C48.1641 62.5072 48.679 61.8195 49.251 61.2464C49.823 60.6447 50.395 60.3438 50.967 60.3438C51.6249 60.3438 52.154 60.5874 52.5544 61.0745C52.9834 61.5616 53.3123 62.1633 53.5411 62.8797C53.77 63.5673 53.9273 64.298 54.0131 65.0716C54.1275 65.8453 54.1847 66.5186 54.1847 67.0917C54.6709 67.0917 55.1428 67.0917 55.6004 67.0917C56.0866 67.063 56.5443 67.0487 56.9733 67.0487C58.6035 67.0487 59.8477 67.4069 60.7057 68.1232C61.5637 68.8395 61.9927 70.0143 61.9927 71.6476C61.9927 72.3066 61.9498 72.9943 61.864 73.7106C61.7782 74.4269 61.6781 75.1719 61.5637 75.9456C61.4493 76.6905 61.3492 77.4355 61.2634 78.1805C61.1776 78.9255 61.1347 79.6562 61.1347 80.3725C61.1347 81.404 61.2777 82.2636 61.5637 82.9513C61.8497 83.6103 62.2073 84.1404 62.6363 84.5415C63.0653 84.9427 63.5229 85.2292 64.0091 85.4011C64.4953 85.5444 64.9387 85.616 65.3391 85.616C66.5689 85.616 67.7273 85.2149 68.8141 84.4126C69.9009 83.6103 70.902 82.6504 71.8172 81.533C72.7324 80.3868 73.5476 79.1834 74.2626 77.9226C75.0062 76.6619 75.6211 75.5587 76.1074 74.6132C76.2504 74.3553 76.4506 74.1547 76.708 74.0115C76.9654 73.8682 77.2371 73.7966 77.5231 73.7966C78.0379 73.7966 78.4383 73.9685 78.7244 74.3123C79.0104 74.6275 79.1534 74.9857 79.1534 75.3868C79.1534 75.6733 79.0962 75.9312 78.9818 76.1605C78.3239 77.3352 77.5517 78.6676 76.6651 80.1576C75.8071 81.6189 74.8203 82.9943 73.7049 84.2837C72.5894 85.5731 71.331 86.6619 69.9295 87.5501C68.5567 88.4384 67.0408 88.8825 65.382 88.8825C64.3523 88.8825 63.3799 88.6819 62.4647 88.2808C61.5494 87.9083 60.7486 87.3639 60.0622 86.6476C59.4044 85.9026 58.8752 85 58.4748 83.9398C58.0744 82.851 57.8742 81.6332 57.8742 80.2865C57.8742 78.8539 58.0172 77.4355 58.3032 76.0315C58.5892 74.5989 58.7322 73.2378 58.7322 71.9484C58.7322 71.404 58.6035 71.0029 58.3461 70.745C58.1173 70.4585 57.5882 70.3152 56.7588 70.3152C56.3583 70.3152 55.915 70.3152 55.4288 70.3152C54.9712 70.3152 54.4707 70.3295 53.9273 70.3582ZM51.0529 67.1777C51.0529 66.9771 51.0386 66.7192 51.0099 66.404C51.0099 66.0602 50.9813 65.7307 50.9241 65.4155C50.8955 65.1003 50.8383 64.8281 50.7525 64.5989C50.6953 64.3696 50.6238 64.255 50.538 64.255C50.4522 64.255 50.3378 64.3696 50.1948 64.5989C50.0804 64.7994 49.9517 65.0573 49.8087 65.3725C49.6657 65.659 49.537 65.9742 49.4226 66.318C49.3082 66.6619 49.2224 66.9484 49.1652 67.1777H51.0529Z" fill="white"/>
<path d="M92.7532 75.5158C94.1546 82.1347 96.1853 85.4441 98.8452 85.4441C99.8748 85.4441 100.862 85.0716 101.805 84.3266C102.749 83.553 103.622 82.6218 104.422 81.533C105.252 80.4155 105.981 79.2407 106.61 78.0086C107.24 76.7765 107.754 75.702 108.155 74.7851C108.441 74.0974 108.941 73.7536 109.656 73.7536C110.114 73.7536 110.5 73.9255 110.815 74.2693C111.129 74.6132 111.287 74.9857 111.287 75.3868C111.287 75.616 111.244 75.8166 111.158 75.9885C110.958 76.4756 110.657 77.1347 110.257 77.9656C109.885 78.7679 109.413 79.6418 108.841 80.5874C108.298 81.5043 107.683 82.4499 106.996 83.4241C106.31 84.3983 105.552 85.2722 104.723 86.0458C103.893 86.8195 103.007 87.4642 102.063 87.9799C101.148 88.467 100.175 88.7106 99.1455 88.7106C97.2292 88.7106 95.5847 88.0516 94.2118 86.7335C92.839 85.3868 91.652 83.1805 90.651 80.1146C89.2781 83.0372 87.891 85.1576 86.4895 86.4756C85.0881 87.7937 83.5722 88.4527 81.942 88.4527C81.0839 88.4527 80.2545 88.3094 79.4537 88.0229C78.6529 87.765 77.9521 87.3209 77.3515 86.6905C76.7509 86.0602 76.2647 85.2579 75.8929 84.2837C75.521 83.2808 75.3351 82.063 75.3351 80.6304C75.3351 78.6533 75.6783 76.8338 76.3648 75.1719C77.0512 73.51 77.9378 72.0917 79.0247 70.9169C80.1115 69.7135 81.3128 68.7822 82.6284 68.1232C83.9726 67.4642 85.3026 67.1347 86.6182 67.1347C87.0473 67.1347 87.4191 67.2923 87.7337 67.6074C88.0483 67.894 88.2056 68.2665 88.2056 68.7249C88.2056 69.1261 88.0769 69.4842 87.8195 69.7994C87.5621 70.1146 87.2189 70.3009 86.7898 70.3582C85.9318 70.4728 85.0166 70.745 84.0442 71.1748C83.0717 71.6046 82.1708 72.235 81.3413 73.0659C80.5405 73.8682 79.8684 74.8997 79.325 76.1605C78.8102 77.4212 78.5527 78.9255 78.5527 80.6733C78.5527 82.106 78.8388 83.2235 79.4108 84.0258C80.0114 84.8281 80.8694 85.2292 81.9849 85.2292C82.4425 85.2292 82.9287 85.1146 83.4435 84.8854C83.9583 84.6275 84.5018 84.1404 85.0738 83.4241C85.6744 82.7077 86.3179 81.6905 87.0044 80.3725C87.7194 79.0544 88.5059 77.3209 89.3639 75.1719C88.8777 72.6504 88.4344 69.7421 88.034 66.447C87.6336 63.1519 87.4334 59.4699 87.4334 55.4011C87.4334 53.6246 87.4906 51.7765 87.605 49.8567C87.7194 47.9083 87.9053 46.0172 88.1627 44.1834C88.4201 42.3209 88.7633 40.5587 89.1923 38.8968C89.6214 37.235 90.1362 35.7736 90.7368 34.5129C91.366 33.2521 92.0953 32.2636 92.9248 31.5473C93.7542 30.8023 94.698 30.4298 95.7563 30.4298C96.7001 30.4298 97.5009 30.6877 98.1588 31.2034C98.8166 31.7192 99.3457 32.4355 99.7461 33.3524C100.175 34.2693 100.49 35.3725 100.69 36.6619C100.89 37.9513 100.99 39.3696 100.99 40.9169C100.99 44.2407 100.704 47.5645 100.132 50.8882C99.5602 54.212 98.8452 57.3925 97.9872 60.4298C97.1577 63.467 96.2711 66.2751 95.3273 68.8539C94.3834 71.4327 93.5254 73.6533 92.7532 75.5158ZM97.7726 40.8739C97.7726 40.1576 97.744 39.384 97.6868 38.553C97.6582 37.7221 97.5581 36.9484 97.3865 36.2321C97.2435 35.4871 97.0433 34.8711 96.7859 34.3839C96.5285 33.8968 96.1853 33.6533 95.7563 33.6533C95.0412 33.6533 94.3691 34.2837 93.7399 35.5444C93.1393 36.8052 92.6102 38.467 92.1525 40.5301C91.6949 42.5645 91.3231 44.8854 91.0371 47.4928C90.7797 50.0716 90.651 52.6791 90.651 55.3152C90.651 57.8367 90.7511 60.3582 90.9513 62.8797C91.1515 65.4011 91.3803 67.6504 91.6377 69.6275C92.4672 67.4212 93.2537 65.1576 93.9973 62.8367C94.7409 60.4871 95.3845 58.0946 95.9279 55.659C96.4999 53.2235 96.9432 50.7736 97.2578 48.3095C97.601 45.8166 97.7726 43.3381 97.7726 40.8739Z" fill="white"/>
<path d="M108.241 79.4699C108.241 75.3438 108.498 71.2321 109.013 67.1347C109.07 66.7335 109.242 66.3897 109.528 66.1031C109.842 65.788 110.243 65.6304 110.729 65.6304C111.158 65.6304 111.515 65.8023 111.801 66.1461C112.087 66.4613 112.23 66.8338 112.23 67.2636C112.23 67.4355 112.188 67.9513 112.102 68.8109C112.045 69.6705 111.959 70.702 111.844 71.9054C111.759 73.0802 111.673 74.341 111.587 75.6877C111.53 77.0057 111.501 78.2235 111.501 79.341C111.501 80.8596 111.644 82.0917 111.93 83.0372C112.245 83.9541 112.631 84.6705 113.089 85.1862C113.575 85.702 114.075 86.0458 114.59 86.2178C115.133 86.3897 115.648 86.4756 116.135 86.4756C116.935 86.4756 117.765 86.1891 118.623 85.616C119.481 85.043 120.353 84.2407 121.24 83.2092C122.155 82.1777 123.07 80.9456 123.985 79.5129C124.901 78.0516 125.802 76.4327 126.688 74.6562C126.831 74.3696 127.032 74.1547 127.289 74.0115C127.546 73.8395 127.832 73.7536 128.147 73.7536C128.605 73.7536 128.976 73.9255 129.262 74.2693C129.577 74.6132 129.734 74.9857 129.734 75.3868C129.734 75.6733 129.677 75.9169 129.563 76.1175C129.219 76.7765 128.79 77.5788 128.276 78.5244C127.761 79.4699 127.175 80.4441 126.517 81.447C125.859 82.4499 125.13 83.4527 124.329 84.4556C123.556 85.4298 122.727 86.318 121.84 87.1203C120.954 87.894 120.024 88.5244 119.052 89.0115C118.079 89.4986 117.093 89.7421 116.092 89.7421C114.805 89.7421 113.675 89.4699 112.702 88.9255C111.73 88.3811 110.901 87.6504 110.214 86.7335C109.556 85.8166 109.056 84.7421 108.713 83.51C108.398 82.2493 108.241 80.9026 108.241 79.4699Z" fill="white"/>
<path d="M162.811 76.1175C162.726 76.2894 162.54 76.6476 162.254 77.192C161.968 77.7077 161.596 78.3238 161.138 79.0401C160.681 79.7278 160.137 80.4728 159.508 81.2751C158.879 82.0487 158.192 82.765 157.449 83.4241C156.705 84.0831 155.904 84.6275 155.046 85.0573C154.188 85.4871 153.302 85.702 152.386 85.702C150.899 85.702 149.641 85.4441 148.611 84.9284C147.581 84.3839 146.738 83.7822 146.08 83.1232C145.622 84.1261 145.064 85.043 144.407 85.8739C143.749 86.7049 143.019 87.4212 142.219 88.0229C141.418 88.6533 140.56 89.1404 139.645 89.4842C138.758 89.8281 137.843 90 136.899 90C135.154 90 133.667 89.4842 132.437 88.4527C131.207 87.4212 130.178 86.0458 129.348 84.3266C128.547 82.5788 127.918 80.5587 127.461 78.2665C127.003 75.9742 126.645 73.5673 126.388 71.0458C126.159 68.5244 126.016 65.9742 125.959 63.3954C125.902 60.8166 125.873 58.3668 125.873 56.0458C125.873 51.6046 126.002 47.765 126.259 44.5272C126.517 41.2607 126.86 38.4957 127.289 36.2321C127.747 33.9398 128.261 32.0917 128.833 30.6877C129.434 29.255 130.063 28.1519 130.721 27.3782C131.379 26.5759 132.051 26.0315 132.737 25.745C133.424 25.4585 134.096 25.3152 134.754 25.3152C135.812 25.3152 136.742 25.6304 137.542 26.2607C138.372 26.8911 139.058 27.7794 139.602 28.9255C140.174 30.043 140.603 31.404 140.889 33.0086C141.175 34.6132 141.318 36.3754 141.318 38.2951C141.318 41.361 140.989 44.5272 140.331 47.7937C139.673 51.0602 138.815 54.3266 137.757 57.5931C136.727 60.8309 135.569 64.0258 134.282 67.1777C132.995 70.3009 131.722 73.2665 130.464 76.0745C130.635 77.4785 130.893 78.8252 131.236 80.1146C131.579 81.3754 132.022 82.5072 132.566 83.51C133.109 84.4842 133.753 85.2722 134.496 85.8739C135.24 86.447 136.098 86.7335 137.07 86.7335C138.043 86.7335 138.958 86.4613 139.816 85.9169C140.674 85.3438 141.418 84.6132 142.047 83.7249C142.676 82.808 143.162 81.7765 143.506 80.6304C143.878 79.4842 144.063 78.3095 144.063 77.106C144.063 76.3037 143.978 75.5014 143.806 74.6991C143.663 73.8682 143.42 73.1375 143.077 72.5072C142.762 71.8481 142.362 71.318 141.875 70.9169C141.389 70.5158 140.803 70.3152 140.116 70.3152C139.602 70.3152 139.201 70.4298 138.915 70.659C138.629 70.8596 138.415 71.1031 138.272 71.3897C138.129 71.6476 138.043 71.9054 138.014 72.1633C137.986 72.4212 137.971 72.5931 137.971 72.6791C137.971 73.0802 138.057 73.4814 138.229 73.8825C138.4 74.2837 138.729 74.6418 139.216 74.957C139.702 75.3009 139.945 75.7736 139.945 76.3754C139.945 76.8625 139.773 77.2493 139.43 77.5358C139.115 77.8223 138.758 77.9656 138.358 77.9656C137.785 77.9656 137.271 77.7937 136.813 77.4499C136.384 77.106 136.012 76.6762 135.698 76.1605C135.383 75.616 135.14 75.043 134.968 74.4413C134.797 73.8395 134.711 73.2808 134.711 72.765C134.711 71.9341 134.854 71.1748 135.14 70.4871C135.426 69.7708 135.812 69.1691 136.298 68.6819C136.813 68.1662 137.385 67.7794 138.014 67.5215C138.672 67.235 139.359 67.0917 140.074 67.0917C141.303 67.0917 142.362 67.3782 143.248 67.9513C144.164 68.5244 144.921 69.2837 145.522 70.2292C146.123 71.1748 146.566 72.2493 146.852 73.4527C147.138 74.6562 147.281 75.8739 147.281 77.106C147.281 77.8223 147.238 78.5244 147.152 79.212C147.267 79.4413 147.453 79.7421 147.71 80.1146C147.967 80.4871 148.311 80.8453 148.74 81.1891C149.169 81.533 149.684 81.8338 150.284 82.0917C150.885 82.3496 151.585 82.4785 152.386 82.4785C153.073 82.4785 153.773 82.2206 154.489 81.7049C155.232 81.1605 155.933 80.5014 156.591 79.7278C157.277 78.9255 157.906 78.0802 158.478 77.192C159.05 76.2751 159.522 75.4298 159.894 74.6562C160.037 74.3696 160.237 74.1547 160.495 74.0115C160.752 73.8395 161.038 73.7536 161.353 73.7536C161.839 73.7536 162.225 73.9255 162.511 74.2693C162.826 74.6132 162.983 75 162.983 75.4298C162.983 75.6017 162.926 75.8309 162.811 76.1175ZM129.648 70.5731C130.621 68.1662 131.608 65.6447 132.609 63.0086C133.61 60.3438 134.511 57.6361 135.312 54.8854C136.112 52.1347 136.77 49.3553 137.285 46.5473C137.8 43.7393 138.057 40.9742 138.057 38.2521C138.057 37.2206 138 36.1461 137.886 35.0286C137.8 33.8825 137.628 32.8367 137.371 31.8911C137.113 30.9456 136.756 30.1576 136.298 29.5272C135.869 28.8968 135.312 28.5817 134.625 28.5817C134.396 28.5817 134.096 28.7393 133.724 29.0544C133.381 29.341 133.009 29.8711 132.609 30.6447C132.208 31.3897 131.808 32.4355 131.407 33.7822C131.007 35.1289 130.635 36.8481 130.292 38.9398C129.977 41.0029 129.706 43.4957 129.477 46.4183C129.277 49.341 129.177 52.7794 129.177 56.7335C129.177 58.0516 129.191 59.3983 129.219 60.7736C129.248 62.1203 129.277 63.4097 129.305 64.6418C129.362 65.8739 129.42 67.0057 129.477 68.0372C129.534 69.0688 129.591 69.914 129.648 70.5731Z" fill="white"/>
<path d="M184.348 76.1175C184.033 76.7765 183.633 77.5645 183.147 78.4814C182.689 79.3696 182.16 80.3009 181.559 81.2751C180.959 82.2493 180.287 83.2235 179.543 84.1977C178.799 85.1433 177.984 86.0029 177.098 86.7765C176.24 87.5215 175.31 88.1232 174.309 88.5817C173.337 89.0688 172.293 89.3123 171.177 89.3123C169.461 89.3123 167.988 88.7822 166.758 87.7221C165.529 86.6619 164.485 85.2722 163.627 83.553C162.769 81.8338 162.068 79.8854 161.524 77.7077C161.01 75.5014 160.609 73.2665 160.323 71.0029C160.037 68.7106 159.837 66.49 159.722 64.341C159.637 62.192 159.594 60.2865 159.594 58.6246C159.594 56.2178 159.665 53.7249 159.808 51.1461C159.98 48.5673 160.237 46.0458 160.581 43.5817C160.924 41.1175 161.353 38.7822 161.868 36.5759C162.411 34.3696 163.04 32.4355 163.755 30.7736C164.499 29.1117 165.343 27.7937 166.286 26.8195C167.23 25.8453 168.303 25.3582 169.504 25.3582C170.448 25.3582 171.292 25.5874 172.035 26.0458C172.807 26.4756 173.451 27.192 173.966 28.1948C174.481 29.1977 174.881 30.5014 175.167 32.106C175.453 33.7106 175.596 35.6734 175.596 37.9943C175.596 40.8596 175.296 43.8252 174.695 46.8911C174.095 49.9284 173.279 52.9943 172.25 56.0888C171.22 59.1834 170.005 62.2779 168.603 65.3725C167.202 68.4384 165.7 71.4327 164.098 74.3553C164.813 77.9943 165.772 80.8596 166.973 82.9513C168.174 85.0143 169.618 86.0458 171.306 86.0458C172.45 86.0458 173.551 85.6017 174.609 84.7135C175.668 83.7966 176.64 82.7221 177.527 81.49C178.413 80.2579 179.186 79.0115 179.843 77.7507C180.53 76.4613 181.059 75.4298 181.431 74.6562C181.574 74.3696 181.774 74.1547 182.031 74.0115C182.289 73.8395 182.575 73.7536 182.889 73.7536C183.376 73.7536 183.762 73.9255 184.048 74.2693C184.362 74.6132 184.52 75 184.52 75.4298C184.52 75.6017 184.462 75.8309 184.348 76.1175ZM162.854 58.8395C162.854 60.6734 162.897 62.4355 162.983 64.1261C163.069 65.8166 163.183 67.4355 163.326 68.9828C164.527 66.6619 165.672 64.1977 166.758 61.5903C167.845 58.9542 168.803 56.3037 169.633 53.639C170.462 50.9456 171.12 48.2808 171.606 45.6447C172.121 42.9799 172.378 40.4441 172.378 38.0372C172.378 34.6562 172.107 32.235 171.563 30.7736C171.02 29.3123 170.291 28.5817 169.375 28.5817C168.775 28.5817 168.188 28.9971 167.616 29.8281C167.073 30.659 166.558 31.7908 166.072 33.2235C165.586 34.6562 165.142 36.3467 164.742 38.2951C164.342 40.2435 163.998 42.3352 163.712 44.5702C163.455 46.8052 163.24 49.1404 163.069 51.5759C162.926 54.0115 162.854 56.4327 162.854 58.8395Z" fill="white"/>
<path d="M186.622 83.2951C187.222 84.1261 187.995 84.7994 188.938 85.3152C189.882 85.8023 191.041 86.0458 192.413 86.0458C193.815 86.0458 195.088 85.7163 196.232 85.0573C197.376 84.3696 198.42 83.4814 199.364 82.3925C200.307 81.3037 201.151 80.086 201.895 78.7393C202.638 77.3925 203.31 76.0458 203.911 74.6991C204.054 74.3839 204.254 74.1547 204.512 74.0115C204.769 73.8395 205.055 73.7536 205.37 73.7536C205.856 73.7536 206.242 73.9255 206.528 74.2693C206.843 74.6132 207 74.9857 207 75.3868C207 75.5301 206.986 75.659 206.957 75.7736C206.929 75.8596 206.886 75.9599 206.828 76.0745C204.855 80.4298 202.696 83.7106 200.35 85.9169C198.034 88.1232 195.402 89.255 192.456 89.3123C190.569 89.3123 188.938 88.9398 187.566 88.1948C186.193 87.4785 185.063 86.5473 184.176 85.4011C183.29 84.2264 182.632 82.9083 182.203 81.447C181.774 79.9857 181.559 78.5244 181.559 77.063C181.559 75.6017 181.731 74.255 182.074 73.0229C182.446 71.7908 182.961 70.7163 183.619 69.7994C184.305 68.8825 185.106 68.1662 186.021 67.6504C186.965 67.1347 187.995 66.8768 189.11 66.8768C189.768 66.8768 190.411 67.0201 191.041 67.3066C191.698 67.5645 192.285 67.9513 192.8 68.467C193.314 68.9542 193.729 69.5559 194.044 70.2722C194.358 70.9885 194.516 71.8052 194.516 72.7221C194.516 73.8968 194.315 75 193.915 76.0315C193.515 77.063 192.957 78.0229 192.242 78.9112C191.555 79.7994 190.726 80.616 189.754 81.361C188.781 82.106 187.737 82.7507 186.622 83.2951ZM185.335 80.5014C186.221 80.1289 187.022 79.6562 187.737 79.0831C188.481 78.51 189.11 77.8797 189.625 77.192C190.14 76.5043 190.54 75.788 190.826 75.043C191.112 74.2693 191.255 73.4957 191.255 72.7221C191.255 71.8625 191.041 71.2178 190.612 70.788C190.183 70.3295 189.682 70.1003 189.11 70.1003C188.338 70.1003 187.68 70.3152 187.137 70.745C186.593 71.1748 186.15 71.7335 185.807 72.4212C185.463 73.1089 185.206 73.8825 185.034 74.7421C184.891 75.5731 184.82 76.404 184.82 77.235C184.82 77.7507 184.863 78.2951 184.949 78.8682C185.063 79.4413 185.192 79.9857 185.335 80.5014Z" fill="white"/>
</svg>
