<svg width="71" height="23" viewBox="0 0 71 23" fill="none" xmlns="http://www.w3.org/2000/svg">
<path fill-rule="evenodd" clip-rule="evenodd" d="M10.6181 19.0453C10.4936 19.2397 10.3576 19.4392 10.21 19.6436C9.95605 19.9951 9.67285 20.3174 9.36035 20.6104C9.04785 20.9033 8.71094 21.1475 8.34961 21.3428C7.98828 21.5283 7.60742 21.6211 7.20703 21.6211C6.64062 21.6211 6.16211 21.4404 5.77148 21.0791C5.39062 20.7178 5.1123 20.2637 4.93652 19.7168C4.60449 20.2734 4.20898 20.7178 3.75 21.0498C3.29102 21.3721 2.83203 21.5332 2.37305 21.5332C2.01172 21.5332 1.68457 21.4697 1.3916 21.3428C1.09863 21.2061 0.849609 21.0205 0.644531 20.7861C0.439453 20.542 0.27832 20.2588 0.161133 19.9365C0.0537109 19.6143 0 19.2627 0 18.8818C0 18.1201 0.126953 17.4512 0.380859 16.875C0.644531 16.2891 0.976562 15.8008 1.37695 15.4102C1.77734 15.0195 2.2168 14.7266 2.69531 14.5312C3.18359 14.3359 3.65234 14.2383 4.10156 14.2383C4.4043 14.2383 4.68262 14.2822 4.93652 14.3701C5.19043 14.4482 5.40527 14.5361 5.58105 14.6338C5.7666 14.7314 5.9082 14.8242 6.00586 14.9121C6.10352 14.9902 6.15723 15.0342 6.16699 15.0439C6.27441 15.1709 6.32812 15.3027 6.32812 15.4395C6.32812 15.5859 6.27441 15.7178 6.16699 15.835C6.05957 15.9424 5.93262 15.9961 5.78613 15.9961C5.62988 15.9961 5.49805 15.9424 5.39062 15.835C5.37109 15.8154 5.32715 15.7812 5.25879 15.7324C5.19043 15.6738 5.09766 15.6152 4.98047 15.5566C4.86328 15.498 4.72168 15.4492 4.55566 15.4102C4.39941 15.3613 4.21875 15.3369 4.01367 15.3369C3.71094 15.3369 3.38867 15.4053 3.04688 15.542C2.70508 15.6787 2.39258 15.8936 2.10938 16.1865C1.82617 16.4697 1.58691 16.8311 1.3916 17.2705C1.20605 17.7002 1.11328 18.2129 1.11328 18.8086C1.11328 18.9941 1.13281 19.1846 1.17188 19.3799C1.21094 19.5654 1.2793 19.7363 1.37695 19.8926C1.47461 20.0488 1.60645 20.1758 1.77246 20.2734C1.93848 20.3711 2.14355 20.4199 2.3877 20.4199C2.56348 20.4199 2.76367 20.3613 2.98828 20.2441C3.22266 20.127 3.44238 19.9463 3.64746 19.7021C3.8623 19.458 4.05273 19.1504 4.21875 18.7793C4.39453 18.4082 4.5166 17.9688 4.58496 17.4609C4.60449 17.3242 4.66797 17.2119 4.77539 17.124C4.88281 17.0264 5.00977 16.9775 5.15625 16.9775C5.29297 16.9775 5.41016 17.0312 5.50781 17.1387C5.61523 17.2461 5.67383 17.3682 5.68359 17.5049C5.69336 17.6904 5.71289 17.9541 5.74219 18.2959C5.77148 18.6279 5.83496 18.96 5.93262 19.292C6.04004 19.624 6.19629 19.9121 6.40137 20.1562C6.60645 20.4004 6.88965 20.5225 7.25098 20.5225C7.48535 20.5225 7.71484 20.459 7.93945 20.332C8.17383 20.2051 8.39844 20.0391 8.61328 19.834C8.83789 19.6191 9.04785 19.3799 9.24316 19.1162C9.44824 18.8428 9.63379 18.5693 9.7998 18.2959C9.96582 18.0225 10.1123 17.7588 10.2393 17.5049C10.3662 17.251 10.4736 17.0312 10.5615 16.8457C10.5826 16.7994 10.6073 16.7576 10.6356 16.7203C10.6782 15.8961 10.7512 15.0737 10.8545 14.2529C10.874 14.1162 10.9326 13.999 11.0303 13.9014C11.1377 13.7939 11.2744 13.7402 11.4404 13.7402C11.5869 13.7402 11.709 13.7988 11.8066 13.916C11.9043 14.0234 11.9531 14.1504 11.9531 14.2969C11.9531 14.3555 11.9385 14.5312 11.9092 14.8242C11.8896 15.1172 11.8604 15.4688 11.8213 15.8789C11.792 16.2793 11.7627 16.709 11.7334 17.168C11.7139 17.6172 11.7041 18.0322 11.7041 18.4131C11.7041 18.9307 11.7529 19.3506 11.8506 19.6729C11.958 19.9854 12.0898 20.2295 12.2461 20.4053C12.4121 20.5811 12.583 20.6982 12.7588 20.7568C12.9443 20.8154 13.1201 20.8447 13.2861 20.8447C13.5596 20.8447 13.8428 20.7471 14.1357 20.5518C14.4287 20.3564 14.7266 20.083 15.0293 19.7314C15.3418 19.3799 15.6543 18.96 15.9668 18.4717C16.2793 17.9736 16.5869 17.4219 16.8896 16.8164C16.9098 16.7762 16.9332 16.7401 16.96 16.7081C16.994 16.6193 17.034 16.4943 17.0801 16.333C17.1387 16.1279 17.2119 15.8105 17.2998 15.3809C17.1338 15.3809 16.9629 15.376 16.7871 15.3662C16.6113 15.3564 16.4502 15.3223 16.3037 15.2637C16.1475 15.2051 16.0205 15.1123 15.9229 14.9854C15.8252 14.8584 15.7764 14.6826 15.7764 14.458C15.7764 14.292 15.8252 14.0674 15.9229 13.7842C16.0107 13.501 16.1328 13.2227 16.2891 12.9492C16.4453 12.6758 16.6211 12.4414 16.8164 12.2461C17.0117 12.041 17.207 11.9385 17.4023 11.9385C17.627 11.9385 17.8076 12.0215 17.9443 12.1875C18.0908 12.3535 18.2031 12.5586 18.2812 12.8027C18.3594 13.0371 18.4131 13.2861 18.4424 13.5498C18.4814 13.8135 18.501 14.043 18.501 14.2383H18.9844C19.1504 14.2285 19.3066 14.2236 19.4531 14.2236C20.0098 14.2236 20.4346 14.3457 20.7275 14.5898C21.0205 14.834 21.167 15.2344 21.167 15.791C21.167 16.0156 21.1523 16.25 21.123 16.4941C21.0938 16.7383 21.0596 16.9922 21.0205 17.2559C20.9814 17.5098 20.9473 17.7637 20.918 18.0176C20.8887 18.2715 20.874 18.5205 20.874 18.7646C20.874 19.1162 20.9229 19.4092 21.0205 19.6436C21.1182 19.8682 21.2402 20.0488 21.3867 20.1855C21.5332 20.3223 21.6895 20.4199 21.8555 20.4785C22.0215 20.5273 22.1729 20.5518 22.3096 20.5518C22.7295 20.5518 23.125 20.415 23.4961 20.1416C23.8672 19.8682 24.209 19.541 24.5215 19.1602C24.834 18.7695 25.1123 18.3594 25.3564 17.9297C25.6104 17.5 25.8203 17.124 25.9863 16.8018C26.0352 16.7139 26.1035 16.6455 26.1914 16.5967C26.219 16.5813 26.2471 16.5684 26.2757 16.5579C26.4745 16.1745 26.71 15.8359 26.9824 15.542C27.3535 15.1318 27.7637 14.8145 28.2129 14.5898C28.6719 14.3652 29.126 14.2529 29.5752 14.2529C29.7217 14.2529 29.8486 14.3066 29.9561 14.4141C30.0635 14.5117 30.1172 14.6387 30.1172 14.7949C30.1172 14.9316 30.0732 15.0537 29.9854 15.1611C29.8975 15.2686 29.7803 15.332 29.6338 15.3516C29.3408 15.3906 29.0283 15.4834 28.6963 15.6299C28.3643 15.7764 28.0566 15.9912 27.7734 16.2744C27.5 16.5479 27.2705 16.8994 27.085 17.3291C26.9092 17.7588 26.8213 18.2715 26.8213 18.8672C26.8213 19.3555 26.9189 19.7363 27.1143 20.0098C27.3193 20.2832 27.6123 20.4199 27.9932 20.4199C28.1494 20.4199 28.3154 20.3809 28.4912 20.3027C28.667 20.2148 28.8525 20.0488 29.0479 19.8047C29.2529 19.5605 29.4727 19.2139 29.707 18.7646C29.9512 18.3154 30.2197 17.7246 30.5127 16.9922C30.3467 16.1328 30.1953 15.1416 30.0586 14.0186C29.9219 12.8955 29.8535 11.6406 29.8535 10.2539C29.8535 9.64844 29.873 9.01855 29.9121 8.36426C29.9512 7.7002 30.0146 7.05566 30.1025 6.43066C30.1904 5.7959 30.3076 5.19531 30.4541 4.62891C30.6006 4.0625 30.7764 3.56445 30.9814 3.13477C31.1963 2.70508 31.4453 2.36816 31.7285 2.12402C32.0117 1.87012 32.334 1.74316 32.6953 1.74316C33.0176 1.74316 33.291 1.83105 33.5156 2.00684C33.7402 2.18262 33.9209 2.42676 34.0576 2.73926C34.2041 3.05176 34.3115 3.42773 34.3799 3.86719C34.4482 4.30664 34.4824 4.79004 34.4824 5.31738C34.4824 6.4502 34.3848 7.58301 34.1895 8.71582C33.9941 9.84863 33.75 10.9326 33.457 11.9678C33.1738 13.0029 32.8711 13.96 32.5488 14.8389C32.2266 15.7178 31.9336 16.4746 31.6699 17.1094C32.1484 19.3652 32.8418 20.4932 33.75 20.4932C34.1016 20.4932 34.4385 20.3662 34.7607 20.1123C35.083 19.8486 35.3809 19.5312 35.6543 19.1602C35.9375 18.7793 36.1865 18.3789 36.4014 17.959C36.6162 17.5391 36.792 17.1729 36.9287 16.8604C36.9499 16.8095 36.9745 16.7642 37.0026 16.7244C37.0452 15.8989 37.1182 15.075 37.2217 14.2529C37.2412 14.1162 37.2998 13.999 37.3975 13.9014C37.5049 13.7939 37.6416 13.7402 37.8076 13.7402C37.9541 13.7402 38.0762 13.7988 38.1738 13.916C38.2715 14.0234 38.3203 14.1504 38.3203 14.2969C38.3203 14.3555 38.3057 14.5312 38.2764 14.8242C38.2568 15.1172 38.2275 15.4688 38.1885 15.8789C38.1592 16.2793 38.1299 16.709 38.1006 17.168C38.0811 17.6172 38.0713 18.0322 38.0713 18.4131C38.0713 18.9307 38.1201 19.3506 38.2178 19.6729C38.3252 19.9854 38.457 20.2295 38.6133 20.4053C38.7793 20.5811 38.9502 20.6982 39.126 20.7568C39.3115 20.8154 39.4873 20.8447 39.6533 20.8447C39.9268 20.8447 40.21 20.7471 40.5029 20.5518C40.7959 20.3564 41.0938 20.083 41.3965 19.7314C41.709 19.3799 42.0215 18.96 42.334 18.4717C42.6465 17.9736 42.9541 17.4219 43.2568 16.8164C43.2691 16.7919 43.2826 16.7689 43.2973 16.7474C43.2424 16.3685 43.1947 15.9814 43.1543 15.5859C43.0762 14.7266 43.0273 13.8574 43.0078 12.9785C42.9883 12.0996 42.9785 11.2646 42.9785 10.4736C42.9785 8.95996 43.0225 7.65137 43.1104 6.54785C43.1982 5.43457 43.3154 4.49219 43.4619 3.7207C43.6182 2.93945 43.7939 2.30957 43.9893 1.83105C44.1943 1.34277 44.4092 0.966797 44.6338 0.703125C44.8584 0.429688 45.0879 0.244141 45.3223 0.146484C45.5566 0.0488281 45.7861 0 46.0107 0C46.3721 0 46.6895 0.107422 46.9629 0.322266C47.2461 0.537109 47.4805 0.839844 47.666 1.23047C47.8613 1.61133 48.0078 2.0752 48.1055 2.62207C48.2031 3.16895 48.252 3.76953 48.252 4.42383C48.252 5.46875 48.1396 6.54785 47.915 7.66113C47.6904 8.77441 47.3975 9.8877 47.0361 11.001C46.6846 12.1045 46.2891 13.1934 45.8496 14.2676C45.4102 15.332 44.9756 16.3428 44.5459 17.2998C44.6045 17.7783 44.6924 18.2373 44.8096 18.6768C44.9268 19.1064 45.0781 19.4922 45.2637 19.834C45.4492 20.166 45.6689 20.4346 45.9229 20.6396C46.1768 20.835 46.4697 20.9326 46.8018 20.9326C47.1338 20.9326 47.4463 20.8398 47.7393 20.6543C48.0322 20.459 48.2861 20.21 48.501 19.9072C48.7158 19.5947 48.8818 19.2432 48.999 18.8525C49.126 18.4619 49.1895 18.0615 49.1895 17.6514C49.1895 17.3779 49.1602 17.1045 49.1016 16.8311C49.0527 16.5479 48.9697 16.2988 48.8525 16.084C48.7451 15.8594 48.6084 15.6787 48.4424 15.542C48.2764 15.4053 48.0762 15.3369 47.8418 15.3369C47.666 15.3369 47.5293 15.376 47.4316 15.4541C47.334 15.5225 47.2607 15.6055 47.2119 15.7031C47.1631 15.791 47.1338 15.8789 47.124 15.9668C47.1143 16.0547 47.1094 16.1133 47.1094 16.1426C47.1094 16.2793 47.1387 16.416 47.1973 16.5527C47.2559 16.6895 47.3682 16.8115 47.5342 16.9189C47.7002 17.0361 47.7832 17.1973 47.7832 17.4023C47.7832 17.5684 47.7246 17.7002 47.6074 17.7979C47.5 17.8955 47.3779 17.9443 47.2412 17.9443C47.0459 17.9443 46.8701 17.8857 46.7139 17.7686C46.5674 17.6514 46.4404 17.5049 46.333 17.3291C46.2256 17.1436 46.1426 16.9482 46.084 16.7432C46.0254 16.5381 45.9961 16.3477 45.9961 16.1719C45.9961 15.8887 46.0449 15.6299 46.1426 15.3955C46.2402 15.1514 46.3721 14.9463 46.5381 14.7803C46.7139 14.6045 46.9092 14.4727 47.124 14.3848C47.3486 14.2871 47.583 14.2383 47.8271 14.2383C48.2471 14.2383 48.6084 14.3359 48.9111 14.5312C49.2236 14.7266 49.4824 14.9854 49.6875 15.3076C49.8926 15.6299 50.0439 15.9961 50.1416 16.4062C50.2393 16.8164 50.2881 17.2314 50.2881 17.6514C50.2881 17.8955 50.2734 18.1348 50.2441 18.3691C50.2832 18.4473 50.3467 18.5498 50.4346 18.6768C50.5225 18.8037 50.6396 18.9258 50.7861 19.043C50.9326 19.1602 51.1084 19.2627 51.3135 19.3506C51.5186 19.4385 51.7578 19.4824 52.0312 19.4824C52.2656 19.4824 52.5049 19.3945 52.749 19.2188C53.0029 19.0332 53.2422 18.8086 53.4668 18.5449C53.7012 18.2715 53.916 17.9834 54.1113 17.6807C54.3066 17.3682 54.4678 17.0801 54.5947 16.8164C54.6436 16.7188 54.7119 16.6455 54.7998 16.5967C54.8278 16.578 54.8569 16.5623 54.8869 16.5496C54.8313 16.2252 54.7827 15.8991 54.7412 15.5713C54.6436 14.79 54.5752 14.0332 54.5361 13.3008C54.5068 12.5684 54.4922 11.9189 54.4922 11.3525C54.4922 10.5322 54.5166 9.68262 54.5654 8.80371C54.624 7.9248 54.7119 7.06543 54.8291 6.22559C54.9463 5.38574 55.0928 4.58984 55.2686 3.83789C55.4541 3.08594 55.6689 2.42676 55.9131 1.86035C56.167 1.29395 56.4551 0.844727 56.7773 0.512695C57.0996 0.180664 57.4658 0.0146484 57.876 0.0146484C58.1982 0.0146484 58.4863 0.0927734 58.7402 0.249023C59.0039 0.395508 59.2236 0.639648 59.3994 0.981445C59.5752 1.32324 59.7119 1.76758 59.8096 2.31445C59.9072 2.86133 59.9561 3.53027 59.9561 4.32129C59.9561 5.29785 59.8535 6.30859 59.6484 7.35352C59.4434 8.38867 59.165 9.43359 58.8135 10.4883C58.4619 11.543 58.0469 12.5977 57.5684 13.6523C57.0898 14.6973 56.5771 15.7178 56.0303 16.7139C56.2744 17.9541 56.6016 18.9307 57.0117 19.6436C57.4219 20.3467 57.915 20.6982 58.4912 20.6982C58.8818 20.6982 59.2578 20.5469 59.6191 20.2441C59.9805 19.9316 60.3125 19.5654 60.6152 19.1455C60.918 18.7256 61.1816 18.3008 61.4062 17.8711C61.6406 17.4316 61.8213 17.0801 61.9482 16.8164C61.9822 16.7485 62.0255 16.6925 62.0783 16.6482C62.1029 16.5152 62.1328 16.3857 62.168 16.2598C62.2949 15.8398 62.4707 15.4736 62.6953 15.1611C62.9297 14.8486 63.2031 14.6045 63.5156 14.4287C63.8379 14.2529 64.1895 14.165 64.5703 14.165C64.7949 14.165 65.0146 14.2139 65.2295 14.3115C65.4541 14.3994 65.6543 14.5312 65.8301 14.707C66.0059 14.873 66.1475 15.0781 66.2549 15.3223C66.3623 15.5664 66.416 15.8447 66.416 16.1572C66.416 16.5576 66.3477 16.9336 66.2109 17.2852C66.0742 17.6367 65.8838 17.9639 65.6396 18.2666C65.4053 18.5693 65.1221 18.8477 64.79 19.1016C64.458 19.3555 64.1016 19.5752 63.7207 19.7607C63.9258 20.0439 64.1895 20.2734 64.5117 20.4492C64.834 20.6152 65.2295 20.6982 65.6982 20.6982C66.1768 20.6982 66.6113 20.5859 67.002 20.3613C67.3926 20.127 67.749 19.8242 68.0713 19.4531C68.3936 19.082 68.6816 18.667 68.9355 18.208C69.1895 17.749 69.4189 17.29 69.624 16.8311C69.6729 16.7236 69.7412 16.6455 69.8291 16.5967C69.917 16.5381 70.0146 16.5088 70.1221 16.5088C70.2881 16.5088 70.4199 16.5674 70.5176 16.6846C70.625 16.8018 70.6787 16.9287 70.6787 17.0654C70.6787 17.1143 70.6738 17.1582 70.6641 17.1973C70.6543 17.2266 70.6396 17.2607 70.6201 17.2998C69.9463 18.7842 69.209 19.9023 68.4082 20.6543C67.6172 21.4062 66.7188 21.792 65.7129 21.8115C65.0684 21.8115 64.5117 21.6846 64.043 21.4307C63.5742 21.1865 63.1885 20.8691 62.8857 20.4785C62.583 20.0781 62.3584 19.6289 62.2119 19.1309C62.1832 19.0333 62.1573 18.9357 62.1342 18.8381C62.0883 18.9153 62.0409 18.9934 61.9922 19.0723C61.7871 19.4043 61.5576 19.7363 61.3037 20.0684C61.0498 20.3906 60.7715 20.6836 60.4688 20.9473C60.1758 21.2012 59.8584 21.4062 59.5166 21.5625C59.1846 21.7285 58.8281 21.8115 58.4473 21.8115C57.8613 21.8115 57.3584 21.6309 56.9385 21.2695C56.5186 20.9082 56.1621 20.4346 55.8691 19.8486C55.5991 19.3085 55.3747 18.7021 55.1959 18.0292C55.142 18.1173 55.0832 18.2111 55.0195 18.3105C54.8633 18.5449 54.6777 18.7988 54.4629 19.0723C54.248 19.3359 54.0137 19.5801 53.7598 19.8047C53.5059 20.0293 53.2324 20.2148 52.9395 20.3613C52.6465 20.5078 52.3438 20.5811 52.0312 20.5811C51.5234 20.5811 51.0938 20.4932 50.7422 20.3174C50.3906 20.1318 50.1025 19.9268 49.8779 19.7021C49.7217 20.0439 49.5312 20.3564 49.3066 20.6396C49.082 20.9229 48.833 21.167 48.5596 21.3721C48.2861 21.5869 47.9932 21.7529 47.6807 21.8701C47.3779 21.9873 47.0654 22.0459 46.7432 22.0459C46.1475 22.0459 45.6396 21.8701 45.2197 21.5186C44.7998 21.167 44.4482 20.6982 44.165 20.1123C43.9415 19.6253 43.7571 19.0764 43.6119 18.4654C43.4847 18.6829 43.3468 18.9048 43.1982 19.1309C42.9736 19.4727 42.7246 19.8145 42.4512 20.1562C42.1875 20.4883 41.9043 20.791 41.6016 21.0645C41.2988 21.3281 40.9814 21.543 40.6494 21.709C40.3174 21.875 39.9805 21.958 39.6387 21.958C39.1992 21.958 38.8135 21.8652 38.4814 21.6797C38.1494 21.4941 37.8662 21.2451 37.6318 20.9326C37.4072 20.6201 37.2363 20.2539 37.1191 19.834C37.0615 19.6034 37.0193 19.3643 36.9926 19.1168C36.8516 19.3413 36.6985 19.5706 36.5332 19.8047C36.2988 20.1367 36.04 20.4346 35.7568 20.6982C35.4736 20.9619 35.1709 21.1816 34.8486 21.3574C34.5361 21.5234 34.2041 21.6064 33.8525 21.6064C33.1982 21.6064 32.6367 21.3818 32.168 20.9326C31.6992 20.4736 31.2939 19.7217 30.9521 18.6768C30.4834 19.6729 30.0098 20.3955 29.5312 20.8447C29.0527 21.2939 28.5352 21.5186 27.9785 21.5186C27.6855 21.5186 27.4023 21.4697 27.1289 21.3721C26.8555 21.2842 26.6162 21.1328 26.4111 20.918C26.2061 20.7031 26.04 20.4297 25.9131 20.0977C25.8322 19.88 25.7771 19.6326 25.7478 19.3556C25.5668 19.6116 25.3729 19.8589 25.166 20.0977C24.7852 20.5371 24.3555 20.9082 23.877 21.2109C23.4082 21.5137 22.8906 21.665 22.3242 21.665C21.9727 21.665 21.6406 21.5967 21.3281 21.46C21.0156 21.333 20.7422 21.1475 20.5078 20.9033C20.2832 20.6494 20.1025 20.3418 19.9658 19.9805C19.8291 19.6094 19.7607 19.1943 19.7607 18.7354C19.7607 18.2471 19.8096 17.7637 19.9072 17.2852C20.0049 16.7969 20.0537 16.333 20.0537 15.8936C20.0537 15.708 20.0098 15.5713 19.9219 15.4834C19.8438 15.3857 19.6631 15.3369 19.3799 15.3369H18.9258C18.7695 15.3369 18.5986 15.3418 18.4131 15.3516C18.374 15.6152 18.3252 15.8643 18.2666 16.0986C18.208 16.3232 18.1494 16.5234 18.0908 16.6992C18.042 16.8652 17.998 17.002 17.959 17.1094C17.9212 17.2134 17.8971 17.2716 17.8867 17.2841C17.8847 17.2885 17.8826 17.2928 17.8804 17.2971C17.8684 17.3236 17.8553 17.3484 17.8412 17.3717C17.7293 17.585 17.5928 17.8394 17.4316 18.1348C17.2559 18.457 17.0557 18.7891 16.8311 19.1309C16.6064 19.4727 16.3574 19.8145 16.084 20.1562C15.8203 20.4883 15.5371 20.791 15.2344 21.0645C14.9316 21.3281 14.6143 21.543 14.2822 21.709C13.9502 21.875 13.6133 21.958 13.2715 21.958C12.832 21.958 12.4463 21.8652 12.1143 21.6797C11.7822 21.4941 11.499 21.2451 11.2646 20.9326C11.04 20.6201 10.8691 20.2539 10.752 19.834C10.6888 19.5812 10.6442 19.3183 10.6181 19.0453ZM17.417 14.0039C17.4268 14.1113 17.4316 14.1992 17.4316 14.2676H16.7871C16.8066 14.1895 16.8359 14.0918 16.875 13.9746C16.9141 13.8574 16.958 13.75 17.0068 13.6523C17.0557 13.5449 17.0996 13.457 17.1387 13.3887C17.1875 13.3105 17.2266 13.2715 17.2559 13.2715C17.2852 13.2715 17.3096 13.3105 17.3291 13.3887C17.3584 13.4668 17.3779 13.5596 17.3877 13.667C17.4072 13.7744 17.417 13.8867 17.417 14.0039ZM33.3545 4.51172C33.374 4.79492 33.3838 5.05859 33.3838 5.30273C33.3838 6.14258 33.3252 6.9873 33.208 7.83691C33.1006 8.67676 32.9492 9.51172 32.7539 10.3418C32.5684 11.1719 32.3486 11.9873 32.0947 12.7881C31.8408 13.5791 31.5723 14.3506 31.2891 15.1025C31.2012 14.4287 31.123 13.6621 31.0547 12.8027C30.9863 11.9434 30.9521 11.084 30.9521 10.2246C30.9521 9.32617 30.9961 8.4375 31.084 7.55859C31.1816 6.66992 31.3086 5.87891 31.4648 5.18555C31.6211 4.48242 31.8018 3.91602 32.0068 3.48633C32.2217 3.05664 32.4512 2.8418 32.6953 2.8418C32.8418 2.8418 32.959 2.9248 33.0469 3.09082C33.1348 3.25684 33.2031 3.4668 33.252 3.7207C33.3105 3.96484 33.3447 4.22852 33.3545 4.51172ZM45.2783 12.8467C44.9365 13.7451 44.5996 14.6045 44.2676 15.4248C44.248 15.2002 44.2285 14.9121 44.209 14.5605C44.1895 14.209 44.1699 13.8232 44.1504 13.4033C44.1406 12.9834 44.1309 12.5439 44.1211 12.085C44.1113 11.6162 44.1064 11.1572 44.1064 10.708C44.1064 9.36035 44.1406 8.18848 44.209 7.19238C44.2871 6.19629 44.3799 5.34668 44.4873 4.64355C44.6045 3.93066 44.7314 3.34473 44.8682 2.88574C45.0049 2.42676 45.1416 2.07031 45.2783 1.81641C45.415 1.55273 45.542 1.37207 45.6592 1.27441C45.7861 1.16699 45.8887 1.11328 45.9668 1.11328C46.2012 1.11328 46.3916 1.2207 46.5381 1.43555C46.6943 1.65039 46.8164 1.91895 46.9043 2.24121C46.9922 2.56348 47.0508 2.91992 47.0801 3.31055C47.1191 3.69141 47.1387 4.05762 47.1387 4.40918C47.1387 5.33691 47.0508 6.2793 46.875 7.23633C46.6992 8.19336 46.4746 9.14062 46.2012 10.0781C45.9277 11.0156 45.6201 11.9385 45.2783 12.8467ZM55.6494 13.2275C55.6201 12.6514 55.6055 12.0508 55.6055 11.4258C55.6055 10.6055 55.6299 9.78027 55.6787 8.9502C55.7373 8.12012 55.8105 7.32422 55.8984 6.5625C55.9961 5.80078 56.1133 5.08789 56.25 4.42383C56.3867 3.75977 56.5381 3.18359 56.7041 2.69531C56.8701 2.20703 57.0459 1.82129 57.2314 1.53809C57.4268 1.25488 57.627 1.11328 57.832 1.11328C58.1445 1.11328 58.3936 1.3623 58.5791 1.86035C58.7646 2.3584 58.8574 3.18359 58.8574 4.33594C58.8574 5.15625 58.7695 6.02051 58.5938 6.92871C58.4277 7.82715 58.2031 8.73535 57.9199 9.65332C57.6367 10.5615 57.3096 11.4648 56.9385 12.3633C56.5674 13.252 56.1768 14.0918 55.7666 14.8828C55.7178 14.3555 55.6787 13.8037 55.6494 13.2275ZM64.1016 18.3252C63.8574 18.5205 63.584 18.6816 63.2812 18.8086C63.2324 18.6328 63.1885 18.4473 63.1494 18.252C63.1201 18.0566 63.1055 17.8711 63.1055 17.6953C63.1055 17.4121 63.1299 17.1289 63.1787 16.8457C63.2373 16.5527 63.3252 16.2891 63.4424 16.0547C63.5596 15.8203 63.7109 15.6299 63.8965 15.4834C64.082 15.3369 64.3066 15.2637 64.5703 15.2637C64.7656 15.2637 64.9365 15.3418 65.083 15.498C65.2295 15.6445 65.3027 15.8643 65.3027 16.1572C65.3027 16.4209 65.2539 16.6846 65.1562 16.9482C65.0586 17.2021 64.9219 17.4463 64.7461 17.6807C64.5703 17.915 64.3555 18.1299 64.1016 18.3252Z" fill="black"/>
<path fill-rule="evenodd" clip-rule="evenodd" d="M12.5684 10.8252C12.832 10.5615 12.9639 10.2441 12.9639 9.87305C12.9639 9.6875 12.9297 9.5166 12.8613 9.36035C12.793 9.19434 12.6953 9.05273 12.5684 8.93555C12.4512 8.80859 12.3096 8.71094 12.1436 8.64258C11.9873 8.57422 11.8164 8.54004 11.6309 8.54004C11.4453 8.54004 11.2695 8.57422 11.1035 8.64258C10.9473 8.71094 10.8057 8.80859 10.6787 8.93555C10.5615 9.05273 10.4688 9.19434 10.4004 9.36035C10.332 9.5166 10.2979 9.6875 10.2979 9.87305C10.2979 10.2441 10.4248 10.5615 10.6787 10.8252C10.9424 11.0791 11.2598 11.2061 11.6309 11.2061C12.002 11.2061 12.3145 11.0791 12.5684 10.8252ZM11.9824 9.52148C12.0898 9.61914 12.1436 9.73633 12.1436 9.87305C12.1436 10.0098 12.0898 10.127 11.9824 10.2246C11.8848 10.3223 11.7676 10.3711 11.6309 10.3711C11.4941 10.3711 11.377 10.3223 11.2793 10.2246C11.1816 10.127 11.1328 10.0098 11.1328 9.87305C11.1328 9.73633 11.1816 9.61914 11.2793 9.52148C11.377 9.41406 11.4941 9.36035 11.6309 9.36035C11.7676 9.36035 11.8848 9.41406 11.9824 9.52148Z" fill="black"/>
<path fill-rule="evenodd" clip-rule="evenodd" d="M38.9355 10.8252C39.1992 10.5615 39.3311 10.2441 39.3311 9.87305C39.3311 9.6875 39.2969 9.5166 39.2285 9.36035C39.1602 9.19434 39.0625 9.05273 38.9355 8.93555C38.8184 8.80859 38.6768 8.71094 38.5107 8.64258C38.3545 8.57422 38.1836 8.54004 37.998 8.54004C37.8125 8.54004 37.6367 8.57422 37.4707 8.64258C37.3145 8.71094 37.1729 8.80859 37.0459 8.93555C36.9287 9.05273 36.8359 9.19434 36.7676 9.36035C36.6992 9.5166 36.665 9.6875 36.665 9.87305C36.665 10.2441 36.792 10.5615 37.0459 10.8252C37.3096 11.0791 37.627 11.2061 37.998 11.2061C38.3691 11.2061 38.6816 11.0791 38.9355 10.8252ZM38.3496 9.52148C38.457 9.61914 38.5107 9.73633 38.5107 9.87305C38.5107 10.0098 38.457 10.127 38.3496 10.2246C38.252 10.3223 38.1348 10.3711 37.998 10.3711C37.8613 10.3711 37.7441 10.3223 37.6465 10.2246C37.5488 10.127 37.5 10.0098 37.5 9.87305C37.5 9.73633 37.5488 9.61914 37.6465 9.52148C37.7441 9.41406 37.8613 9.36035 37.998 9.36035C38.1348 9.36035 38.252 9.41406 38.3496 9.52148Z" fill="black"/>
<path d="M21.7815 2.49391L22.2278 2.37207L26.707 14.0283C26.6652 14.5882 25.7699 14.8341 25.368 14.3938L21.7815 2.49391Z" fill="black"/>
<path d="M20.707 2.69192L21.1667 2.61956L24.0576 14.859C23.9412 15.418 23.0191 15.5646 22.6788 15.0761L20.707 2.69192Z" fill="black"/>
</svg>
