<svg width="130" height="116" viewBox="0 0 130 116" fill="none" xmlns="http://www.w3.org/2000/svg">
<path fill-rule="evenodd" clip-rule="evenodd" d="M65.5043 0.162372C53.927 -0.502992 42.5302 0.78754 32.0189 5.69236C19.5192 11.5251 2.83106 17.0481 0.246674 30.6133C-2.38783 44.4416 16.8702 52.8948 20.4316 66.5133C24.3941 81.6656 9.96268 101.893 21.6184 112.338C32.8785 122.428 50.4962 108.655 65.5043 106.903C78.1455 105.426 92.0715 110.144 102.534 102.888C113.065 95.5842 115.14 81.4776 119.536 69.4285C124.127 56.8456 133.484 43.7919 128.651 31.3001C123.831 18.8405 108.279 15.2898 96.309 9.38722C86.4527 4.52706 76.4726 0.792739 65.5043 0.162372Z" fill="#FFDD67"/>
</svg>
