<svg width="20" height="20" viewBox="0 0 20 20" fill="none" xmlns="http://www.w3.org/2000/svg">
<path d="M11.4675 10.0083L2.50083 9.105L2.5 3.395C2.50011 3.24252 2.53917 3.0926 2.61349 2.95945C2.6878 2.82631 2.7949 2.71435 2.92462 2.63422C3.05434 2.55408 3.20239 2.50841 3.35472 2.50155C3.50704 2.49469 3.6586 2.52685 3.795 2.595L17.005 9.2C17.1534 9.27444 17.2782 9.38868 17.3654 9.52996C17.4525 9.67124 17.4987 9.83398 17.4987 10C17.4987 10.166 17.4525 10.3288 17.3654 10.47C17.2782 10.6113 17.1534 10.7256 17.005 10.8L3.79667 17.405C3.66026 17.4731 3.50871 17.5053 3.35638 17.4985C3.20406 17.4916 3.05601 17.4459 2.92629 17.3658C2.79656 17.2856 2.68947 17.1737 2.61515 17.0406C2.54084 16.9074 2.50178 16.7575 2.50167 16.605V10.895L11.4683 10.0083H11.4675Z" fill="black"/>
</svg>
