<svg width="20" height="20" viewBox="0 0 20 20" fill="none" xmlns="http://www.w3.org/2000/svg">
<path d="M11.4675 10.0083L2.50083 9.10497L2.5 3.39497C2.50011 3.24249 2.53917 3.09257 2.61349 2.95942C2.6878 2.82627 2.7949 2.71432 2.92462 2.63418C3.05434 2.55405 3.20239 2.50838 3.35472 2.50152C3.50704 2.49465 3.6586 2.52682 3.795 2.59497L17.005 9.19997C17.1534 9.2744 17.2782 9.38865 17.3654 9.52993C17.4525 9.67121 17.4987 9.83395 17.4987 9.99997C17.4987 10.166 17.4525 10.3287 17.3654 10.47C17.2782 10.6113 17.1534 10.7255 17.005 10.8L3.79667 17.405C3.66026 17.4731 3.50871 17.5053 3.35638 17.4984C3.20406 17.4916 3.05601 17.4459 2.92629 17.3658C2.79656 17.2856 2.68947 17.1737 2.61515 17.0405C2.54084 16.9074 2.50178 16.7575 2.50167 16.605V10.895L11.4683 10.0083H11.4675Z" fill="#B0A1BA"/>
</svg>
