<svg width="75" height="75" viewBox="0 0 75 75" fill="none" xmlns="http://www.w3.org/2000/svg">
<path d="M18.6825 19.6826C18.1605 19.02 19.02 18.1606 19.6826 18.6825L25.2409 23.0617C32.4182 28.7164 42.5352 28.7164 49.7124 23.0617L55.2707 18.6826C55.9334 18.1605 56.7928 19.02 56.2708 19.6827L51.8916 25.241C46.237 32.4182 46.237 42.5352 51.8916 49.7124L56.2708 55.2707C56.7928 55.9334 55.9334 56.7928 55.2707 56.2708L49.7124 51.8916C42.5352 46.237 32.4182 46.237 25.2409 51.8917L19.6826 56.2709C19.02 56.7928 18.1605 55.9334 18.6825 55.2707L23.0617 49.7124C28.7164 42.5352 28.7164 32.4182 23.0617 25.2409L18.6825 19.6826Z" fill="#B0A1BA"/>
</svg>
