<svg width="75" height="75" viewBox="0 0 75 75" fill="none" xmlns="http://www.w3.org/2000/svg">
<path d="M18.7059 19.7059C18.184 19.0433 19.0434 18.1839 19.706 18.7058L25.2643 23.085C32.4416 28.7397 42.5586 28.7397 49.7358 23.085L55.2941 18.7059C55.9568 18.1839 56.8162 19.0433 56.2942 19.706L51.9151 25.2643C46.2604 32.4415 46.2604 42.5585 51.9151 49.7357L56.2942 55.294C56.8162 55.9567 55.9568 56.8161 55.2941 56.2941L49.7358 51.915C42.5586 46.2603 32.4416 46.2603 25.2643 51.915L19.706 56.2942C19.0434 56.8161 18.184 55.9567 18.7059 55.2941L23.0851 49.7358C28.7398 42.5585 28.7398 32.4415 23.0851 25.2642L18.7059 19.7059Z" fill="#EDF2FE"/>
</svg>
